<?xml version="1.0" encoding="UTF-8"?>
<svg id="Warstwa_2" xmlns="http://www.w3.org/2000/svg" viewBox="0 0 93.06 35.2">
  <defs>
    <style>.cls-1 {
      fill: #2b9a3f;
    }

    .cls-2 {
      fill: #bcd144;
    }</style>
  </defs>
  <g id="Warstwa_1-2">
    <g id="Warstwa_3">
      <path class="cls-2"
            d="m17.5.2C7.8.2,0,8,0,17.7s7.8,17.5,17.5,17.5,17.5-7.8,17.5-17.5S27.2.2,17.5.2Zm9.9,19.9H10.9c1.1,2.8,3.7,4.6,7,4.6s4.4-.5,6.2-1.6c1.2-.7,2.7-.4,3.4.8.7,1.2.4,2.7-.8,3.4-2.6,1.6-4.6,2.4-8.9,2.4-6.8,0-11.9-4.9-12.5-11.5,0-.2-.1-.3-.1-.5v-.6c0-.2,0-.4.1-.5.7-6.5,5.9-11.5,12.3-11.5,6.8,0,12.3,5.6,12.3,12.6,0,1.3-1.1,2.4-2.5,2.4Zm-2.9-5h-13.7c1-2.9,3.7-5.1,6.9-5.1s5.8,2.2,6.8,5.1Z"/>
      <path class="cls-1"
            d="m54,.3l-7.8,19.5h5.9c1.3,0,1.6,1.4,1.3,2.4s-.8,2.1-1.1,2.7c-.2.6-.3,1.1-1.9,1.2s-13.6,0-13.6,0l8.1-20.1h-5.3c-1.4,0-1.2-1.4-1-2.3s1.1-2.5,1.3-2.9.6-.5,1.4-.5,12.7,0,12.7,0Zm5.9-.1c-.9,0-1.6-.1-2.1.8-.2.4-.9,2-2.1,5.1-1.3,3.1-2.2,7-.6,11.7,1.9,5.9,8.5,8.4,12.7,8.4h5.7c.9,0,1.7-.8,1.7-1.8V2.2c0-1.4-.4-2-1.4-2h-5.3l.1,19.4s-2.4.1-4.5-1.1c-3.1-1.7-3.8-6.2-2.8-8.6.8-2,4.1-9.7,4.1-9.7-1,0-4.3,0-5.5,0Zm-24.3,28.4s-1.4,3.5-1.7,4.4-.3,2.1,2.9,2.1h42.6c1.8,0,10-.1,12.4-5.7,2.3-5.4,1.2-9.5-1.2-12.7s-5.7-7.9-6.1-8.7c-.3-.8-.2-2.1,1.7-2.1h3.2c1,0,2.3-1.1,1-3-1.2-1.7-1.4-2-1.8-2.4-.5-.5-1-.5-1.8-.5h-4.2c-2.2,0-4.1,1.4-5.2,3.7-1.1,2.6-.7,4.7.7,6.9s6.2,9.3,7.4,10.8c1.1,1.5,1.5,7.1-4.8,7.1-6.2.1-45.1.1-45.1.1Z"/>
    </g>
  </g>
</svg>
