<svg xmlns="http://www.w3.org/2000/svg" xmlns:xlink="http://www.w3.org/1999/xlink" width="500" zoomAndPan="magnify" viewBox="0 0 375 262.499992" height="350" preserveAspectRatio="xMidYMid meet" version="1.0"><defs><g/><clipPath id="1fd58a849a"><path d="M 51 41.753906 L 138 41.753906 L 138 170 L 51 170 Z M 51 41.753906 " clip-rule="nonzero"/></clipPath><clipPath id="949f9ec14b"><path d="M 136 41.753906 L 240 41.753906 L 240 171 L 136 171 Z M 136 41.753906 " clip-rule="nonzero"/></clipPath><clipPath id="6803897479"><path d="M 32 41.753906 L 327 41.753906 L 327 214.675781 L 32 214.675781 Z M 32 41.753906 " clip-rule="nonzero"/></clipPath><clipPath id="c71aafcbdc"><path d="M 84.523438 163.644531 L 223 163.644531 L 223 192.839844 L 84.523438 192.839844 Z M 84.523438 163.644531 " clip-rule="nonzero"/></clipPath><clipPath id="bf565f5073"><rect x="0" width="96" y="0" height="37"/></clipPath></defs><g clip-path="url(#1fd58a849a)"><path fill="#007834" d="M 125.117188 169.984375 L 137.371094 139.363281 L 97.109375 139.363281 L 135.949219 41.738281 L 67.113281 41.753906 L 54.523438 71.277344 L 90.707031 71.277344 L 51.144531 169.984375 Z M 125.117188 169.984375 " fill-opacity="1" fill-rule="nonzero"/></g><g clip-path="url(#949f9ec14b)"><path fill="#007834" d="M 207.109375 170.363281 L 208.4375 170.363281 C 208.4375 170.363281 239.304688 170.347656 239.304688 170.347656 L 239.304688 41.753906 C 239.304688 41.753906 206.863281 41.753906 206.863281 41.753906 C 206.863281 41.753906 207.125 129.214844 206.863281 139.054688 C 173.140625 139.484375 162.171875 110.359375 170.988281 88.265625 C 175.355469 77.3125 184.664062 54.023438 189.460938 42.871094 L 190.085938 41.753906 L 156.226562 41.753906 C 156.226562 41.753906 154.179688 45.710938 141.28125 78.210938 C 127.867188 112.027344 144.355469 170.363281 207.109375 170.363281 Z M 207.109375 170.363281 " fill-opacity="1" fill-rule="nonzero"/></g><g clip-path="url(#6803897479)"><path fill="#007834" d="M 319.417969 131.050781 C 312.894531 121.578125 291.972656 91.292969 289.851562 88.25 C 285.9375 82.613281 283.816406 79.390625 285.832031 75.109375 C 287.511719 71.519531 291.132812 71.046875 292.433594 71.046875 L 323.773438 70.953125 L 304.105469 42.074219 L 303.878906 41.753906 L 280.238281 41.785156 C 268.046875 41.785156 257.519531 48.617188 252.230469 57.890625 C 246.59375 67.792969 246.285156 81.648438 252.597656 90.910156 C 258.496094 99.574219 273.746094 121.714844 283.464844 135.785156 C 290.292969 145.671875 298.101562 155.40625 291.515625 169.585938 C 287.910156 177.378906 280.5 183 270.230469 183 C 255.851562 183 46.148438 183 46.148438 183 L 45.660156 183 L 32.960938 214.660156 L 253.316406 214.691406 C 283.921875 214.691406 305.832031 212.109375 320.179688 185.675781 C 328.601562 170.164062 329.65625 145.917969 319.417969 131.019531 Z M 319.417969 131.050781 " fill-opacity="1" fill-rule="nonzero"/></g><g clip-path="url(#c71aafcbdc)"><path fill="#007834" d="M 201.535156 191.207031 C 191.957031 174.730469 174.128906 163.644531 153.703125 163.644531 C 133.273438 163.644531 115.449219 174.730469 105.871094 191.207031 L 84.957031 191.207031 L 84.957031 193.15625 L 222.449219 193.15625 L 222.449219 191.207031 Z M 201.535156 191.207031 " fill-opacity="1" fill-rule="nonzero"/></g><g transform="matrix(1, 0, 0, 1, 27, 210)"><g clip-path="url(#bf565f5073)"><g fill="#007834" fill-opacity="1"><g transform="translate(0.78104, 27.010284)"><g><path d="M 10 0.0625 L 9.765625 0 L 8.96875 0 L 8.65625 -0.03125 L 8.4375 -0.03125 L 8.234375 -0.0625 L 8.0625 -0.328125 L 8.09375 -0.5625 L 8.125 -0.828125 L 8.171875 -1.09375 L 8.296875 -1.296875 L 8.296875 -1.703125 L 8.421875 -2.328125 L 8.4375 -2.53125 L 8.4375 -2.734375 L 8.46875 -2.9375 L 8.5 -3.328125 L 8.5625 -3.46875 L 8.59375 -3.890625 L 8.671875 -4.328125 L 8.734375 -4.890625 L 8.921875 -5.765625 L 9.03125 -6.09375 L 9.09375 -6.390625 L 9.09375 -6.734375 L 9.171875 -7.15625 L 9.234375 -7.359375 L 9.296875 -7.765625 L 9.296875 -7.96875 L 9.359375 -8.328125 L 9.09375 -8.296875 L 8.890625 -8.296875 L 8.625 -8.359375 L 7.671875 -8.265625 L 7.234375 -8.359375 L 6.734375 -8.390625 L 6.703125 -8.234375 L 6.671875 -8 L 6.5625 -7.59375 L 6.5 -7.203125 L 6.390625 -7 L 6.390625 -6.5 L 6.328125 -6.296875 L 6.171875 -5.625 L 6 -4.96875 L 6.03125 -4.796875 L 5.890625 -4.4375 L 5.859375 -4.296875 L 5.734375 -3.90625 L 5.671875 -3.46875 L 5.5 -2.640625 L 5.46875 -2.40625 L 5.390625 -2 L 5.390625 -1.796875 L 5.328125 -1.390625 L 5.265625 -1.140625 L 5.234375 -0.9375 L 5.171875 -0.5 L 5.03125 -0.203125 L 4.796875 -0.09375 L 4.53125 -0.0625 L 4.171875 -0.03125 L 3.734375 0.03125 L 3.5 0.03125 L 3.296875 -0.0625 L 3.09375 -0.03125 L 2.890625 0.03125 L 2.53125 -0.03125 L 1.59375 -0.03125 L 1 -0.09375 L 0.875 -0.40625 L 0.875 -0.640625 L 1 -0.90625 L 1.140625 -1.296875 L 1.171875 -1.59375 L 1.234375 -1.859375 L 1.234375 -2.0625 L 1.296875 -2.234375 L 1.234375 -2.4375 L 1.40625 -2.765625 L 1.46875 -2.96875 L 1.4375 -3.203125 L 1.5625 -3.625 L 1.53125 -4.03125 L 1.640625 -4.234375 L 1.765625 -4.5 L 1.796875 -4.703125 L 1.796875 -4.9375 L 1.890625 -5.359375 L 1.9375 -5.59375 L 2.09375 -6.625 L 2.140625 -6.796875 L 2.171875 -6.96875 L 2.234375 -7.203125 L 2.203125 -7.421875 L 2.328125 -7.828125 L 2.359375 -8.203125 L 2.4375 -8.5 L 2.5 -8.859375 L 2.5 -9.0625 L 2.5625 -9.5 L 2.640625 -9.703125 L 2.734375 -9.9375 L 2.734375 -10.1875 L 2.859375 -10.59375 L 3.03125 -11.625 L 3.09375 -12.03125 L 3.125 -12.453125 L 3.296875 -12.859375 L 3.328125 -13.0625 L 3.359375 -13.46875 L 3.46875 -14.09375 L 3.53125 -14.46875 L 3.59375 -14.703125 L 3.671875 -15.328125 L 3.703125 -15.46875 L 3.703125 -15.890625 L 3.828125 -16.125 L 3.859375 -16.359375 L 3.890625 -16.53125 L 3.96875 -16.921875 L 3.96875 -17.53125 L 4.171875 -17.921875 L 4.15625 -18.328125 L 4.203125 -18.53125 L 4.234375 -18.734375 L 4.328125 -18.953125 L 4.296875 -19.1875 L 4.359375 -19.390625 L 4.4375 -19.765625 L 4.46875 -20.125 L 4.5 -20.453125 L 4.765625 -20.59375 L 5.5 -20.59375 L 6.703125 -20.625 L 7.125 -20.59375 L 7.765625 -20.59375 L 8.0625 -20.6875 L 8.421875 -20.625 L 8.703125 -20.5625 L 8.765625 -20.296875 L 8.765625 -20.125 L 8.796875 -19.921875 L 8.703125 -19.5625 L 8.671875 -19.390625 L 8.65625 -18.984375 L 8.5625 -18.71875 L 8.53125 -18.453125 L 8.421875 -17.890625 L 8.359375 -17.46875 L 8.328125 -17.125 L 8.234375 -16.921875 L 8.234375 -16.453125 L 8.171875 -16.234375 L 8.125 -16 L 8.09375 -15.625 L 8.03125 -15.46875 L 8 -15.125 L 8 -14.953125 L 7.9375 -14.796875 L 7.890625 -14.5625 L 7.859375 -14.359375 L 7.765625 -14.1875 L 7.796875 -13.96875 L 7.703125 -13.59375 L 7.65625 -13.390625 L 7.671875 -13.203125 L 7.625 -12.96875 L 7.59375 -12.796875 L 7.53125 -12.5625 L 7.734375 -12.53125 L 7.96875 -12.53125 L 8.828125 -12.5 L 9.0625 -12.53125 L 9.421875 -12.5 L 9.65625 -12.53125 L 10.265625 -12.5 L 10.359375 -12.96875 L 10.46875 -13.234375 L 10.46875 -13.453125 L 10.5 -13.65625 L 10.65625 -14.09375 L 10.59375 -14.265625 L 10.734375 -14.65625 L 10.765625 -14.828125 L 10.796875 -15.03125 L 10.828125 -15.265625 L 10.859375 -15.46875 L 10.921875 -15.65625 L 10.921875 -15.859375 L 11 -16.234375 L 11.03125 -16.625 L 11.15625 -16.890625 L 11.15625 -17.234375 L 11.125 -17.46875 L 11.15625 -17.6875 L 11.265625 -18.09375 L 11.265625 -18.328125 L 11.359375 -18.71875 L 11.421875 -18.890625 L 11.46875 -19.265625 L 11.5 -19.453125 L 11.625 -19.71875 L 11.6875 -19.921875 L 11.65625 -20.125 L 11.6875 -20.296875 L 11.921875 -20.5625 L 12.09375 -20.59375 L 12.359375 -20.625 L 13.421875 -20.625 L 14 -20.59375 L 14.828125 -20.59375 L 15.296875 -20.53125 L 15.5 -20.453125 L 15.71875 -20.1875 L 15.6875 -20 L 15.71875 -19.796875 L 15.59375 -19.625 L 15.625 -19.5 L 15.59375 -19.328125 L 15.59375 -19.125 L 15.46875 -18.765625 L 15.453125 -18.359375 L 15.453125 -18.125 L 15.421875 -17.921875 L 15.359375 -17.71875 L 15.296875 -17.46875 L 15.265625 -17.09375 L 15.265625 -16.890625 L 15.21875 -16.5 L 15.1875 -16.296875 L 15.09375 -15.921875 L 15.0625 -15.71875 L 15 -15.5 L 14.96875 -15.265625 L 14.921875 -14.890625 L 14.890625 -14.703125 L 14.734375 -14.359375 L 14.703125 -14.1875 L 14.65625 -13.796875 L 14.59375 -13.328125 L 14.5625 -12.890625 L 14.421875 -12.46875 L 14.390625 -12.03125 L 14.359375 -11.859375 L 14.265625 -11.4375 L 14.234375 -11.234375 L 14.125 -11.0625 L 14.125 -10.828125 L 14.1875 -10.625 L 14.09375 -10.4375 L 14.0625 -10.234375 L 14.0625 -9.859375 L 14.03125 -9.65625 L 13.890625 -9.265625 L 13.859375 -9.0625 L 13.734375 -8.53125 L 13.734375 -8.359375 L 13.6875 -8.03125 L 13.59375 -7.625 L 13.53125 -7.421875 L 13.5625 -7.234375 L 13.390625 -6.625 L 13.421875 -6.4375 L 13.359375 -6.234375 L 13.296875 -6.0625 L 13.265625 -5.859375 L 13.1875 -5.4375 L 13.1875 -5.203125 L 13.15625 -5 L 13.0625 -4.59375 L 12.96875 -4.265625 L 12.921875 -4.09375 L 12.890625 -3.671875 L 12.859375 -3.203125 L 12.765625 -2.796875 L 12.734375 -2.59375 L 12.6875 -2.203125 L 12.625 -2 L 12.59375 -1.671875 L 12.53125 -1.328125 L 12.453125 -1.171875 L 12.421875 -0.9375 L 12.359375 -0.734375 L 12.359375 -0.5 L 12.296875 -0.296875 L 12.1875 -0.125 L 11.828125 -0.03125 L 11.390625 -0.03125 L 11.203125 0 L 10.828125 0.03125 L 10.234375 0.03125 Z M 10 0.0625 "/></g></g></g><g fill="#007834" fill-opacity="1"><g transform="translate(15.581961, 27.010284)"><g><path d="M 7.125 0.46875 L 6.359375 0.375 L 5.96875 0.40625 L 5.765625 0.375 L 5.5 0.359375 L 4.828125 0.140625 L 4.59375 0.125 L 4.15625 0 L 3.9375 -0.125 L 3.53125 -0.375 L 3 -0.828125 L 2.59375 -1.296875 L 2.5 -1.4375 L 2.359375 -1.59375 L 2.265625 -1.765625 L 2.125 -1.96875 L 1.890625 -2.359375 L 1.890625 -2.53125 L 1.796875 -2.734375 L 1.765625 -2.90625 L 1.703125 -3.0625 L 1.640625 -3.234375 L 1.625 -3.4375 L 1.5625 -3.625 L 1.53125 -4.03125 L 1.5 -4.203125 L 1.40625 -4.796875 L 1.46875 -5 L 1.46875 -5.5625 L 1.5625 -5.859375 L 1.53125 -6.09375 L 1.53125 -6.296875 L 1.59375 -6.9375 L 1.703125 -7.359375 L 1.703125 -7.59375 L 1.765625 -8 L 1.765625 -8.203125 L 1.890625 -8.625 L 1.828125 -8.765625 L 1.890625 -9.15625 L 1.9375 -9.359375 L 2.03125 -9.890625 L 2.125 -10.234375 L 2.125 -10.625 L 2.203125 -10.96875 L 2.203125 -11.1875 L 2.296875 -11.359375 L 2.359375 -11.5625 L 2.359375 -11.734375 L 2.40625 -11.9375 L 2.390625 -12.125 L 2.5625 -12.421875 L 2.625 -12.625 L 2.625 -13.03125 L 2.671875 -13.390625 L 2.765625 -13.59375 L 2.796875 -13.765625 L 2.859375 -14.1875 L 2.96875 -14.921875 L 3.125 -15.125 L 3.171875 -15.5 L 3.359375 -15.890625 L 3.4375 -16.09375 L 3.5625 -16.453125 L 3.703125 -16.859375 L 3.890625 -17.21875 L 4 -17.421875 L 4.265625 -17.796875 L 4.296875 -18 L 4.40625 -18.1875 L 4.65625 -18.5625 L 4.890625 -18.921875 L 5.09375 -19.0625 L 5.234375 -19.234375 L 5.65625 -19.6875 L 6.03125 -19.953125 L 6.265625 -20.03125 L 6.46875 -20.1875 L 6.828125 -20.390625 L 7.171875 -20.5625 L 7.625 -20.6875 L 7.796875 -20.71875 L 8.234375 -20.828125 L 8.53125 -20.859375 L 9.0625 -20.953125 L 9.46875 -20.984375 L 9.828125 -21 L 10.359375 -20.984375 L 10.53125 -20.953125 L 10.859375 -20.921875 L 11.328125 -20.859375 L 11.5625 -20.765625 L 11.796875 -20.75 L 11.96875 -20.6875 L 12.421875 -20.484375 L 12.953125 -20.125 L 13.1875 -19.984375 L 13.328125 -19.796875 L 13.65625 -19.53125 L 13.96875 -19.234375 L 14.125 -19.0625 L 14.203125 -18.859375 L 14.390625 -18.484375 L 14.46875 -18.296875 L 14.53125 -18.125 L 14.59375 -17.921875 L 14.6875 -17.46875 L 14.734375 -16.921875 L 14.765625 -16.6875 L 14.765625 -16.46875 L 14.734375 -16.09375 L 14.703125 -15.921875 L 14.734375 -15.53125 L 14.734375 -15.328125 L 14.703125 -14.953125 L 14.65625 -14.734375 L 14.625 -14.5625 L 14.65625 -14.359375 L 14.65625 -14.0625 L 14.625 -13.890625 L 14.5625 -13.46875 L 14.53125 -13.03125 L 14.5 -12.5625 L 14.453125 -12.359375 L 14.390625 -11.890625 L 14.421875 -11.59375 L 14.265625 -11.265625 L 14.296875 -10.921875 L 14.1875 -10.53125 L 14.125 -10.15625 L 14.03125 -9.765625 L 14 -9.421875 L 13.921875 -9.03125 L 13.828125 -8.859375 L 13.734375 -8.328125 L 13.734375 -8.0625 L 13.6875 -7.859375 L 13.625 -7.4375 L 13.53125 -7.265625 L 13.234375 -6.234375 L 13.265625 -6.0625 L 13.125 -5.703125 L 13.03125 -5.53125 L 13 -5.203125 L 12.859375 -4.890625 L 12.765625 -4.53125 L 12.765625 -4.328125 L 12.6875 -4 L 12.53125 -3.796875 L 12.5 -3.5 L 12.296875 -3.09375 L 12.0625 -2.5625 L 11.921875 -2.359375 L 11.65625 -1.96875 L 11.53125 -1.796875 L 11.390625 -1.625 L 11.328125 -1.4375 L 10.96875 -1.09375 L 10.796875 -0.9375 L 10.65625 -0.765625 L 10.296875 -0.5 L 9.9375 -0.265625 L 9.828125 -0.171875 L 9.15625 0.09375 L 8.9375 0.125 L 8.703125 0.171875 L 8.296875 0.265625 L 8.09375 0.296875 L 7.765625 0.375 Z M 6.890625 -3.53125 L 7.265625 -3.53125 L 7.671875 -3.640625 L 7.9375 -3.765625 L 8.359375 -4.0625 L 8.5625 -4.46875 L 8.734375 -4.890625 L 8.796875 -5.09375 L 8.796875 -5.328125 L 8.890625 -5.765625 L 8.9375 -5.96875 L 9 -6.390625 L 9.09375 -6.625 L 9.125 -7.03125 L 9.203125 -7.234375 L 9.296875 -7.625 L 9.328125 -7.859375 L 9.421875 -8.03125 L 9.421875 -8.265625 L 9.390625 -8.359375 L 9.46875 -8.625 L 9.5625 -9.0625 L 9.625 -9.734375 L 9.703125 -10 L 9.796875 -10.234375 L 9.859375 -10.796875 L 9.9375 -10.96875 L 9.921875 -11.46875 L 10.03125 -11.921875 L 10.09375 -12.265625 L 10.15625 -12.5 L 10.203125 -12.703125 L 10.1875 -12.921875 L 10.203125 -13.296875 L 10.265625 -13.53125 L 10.359375 -13.953125 L 10.421875 -14.203125 L 10.421875 -14.59375 L 10.46875 -15.125 L 10.5 -15.5 L 10.5625 -15.921875 L 10.4375 -16.5 L 10.328125 -16.6875 L 10.125 -16.953125 L 9.65625 -17.15625 L 9.09375 -17.125 L 8.859375 -17.0625 L 8.390625 -16.890625 L 8.09375 -16.625 L 7.890625 -16.296875 L 7.765625 -15.953125 L 7.46875 -15.359375 L 7.421875 -15.15625 L 7.359375 -14.921875 L 7.171875 -14.296875 L 7.171875 -14.234375 L 7.15625 -14 L 7.0625 -13.59375 L 7.03125 -13.421875 L 6.921875 -13 L 6.828125 -12.59375 L 6.734375 -12.125 L 6.703125 -11.921875 L 6.65625 -11.703125 L 6.59375 -11.265625 L 6.5 -11.03125 L 6.390625 -10.5625 L 6.328125 -10.359375 L 6.265625 -9.9375 L 6.265625 -9.734375 L 6.234375 -9.53125 L 6.265625 -9.296875 L 6.171875 -9.09375 L 6.03125 -8.671875 L 6.0625 -8.4375 L 6 -8.234375 L 6.03125 -8.125 L 5.96875 -7.859375 L 5.96875 -7.625 L 5.90625 -7.421875 L 5.90625 -7.171875 L 5.828125 -6.734375 L 5.828125 -6.53125 L 5.734375 -6.328125 L 5.828125 -6.125 L 5.796875 -5.765625 L 5.671875 -5.46875 L 5.765625 -5.265625 L 5.765625 -4.4375 L 5.859375 -4.234375 L 5.90625 -4.125 L 6.09375 -3.859375 L 6.234375 -3.703125 L 6.46875 -3.625 L 6.703125 -3.5625 Z M 6.890625 -3.53125 "/></g></g></g><g fill="#007834" fill-opacity="1"><g transform="translate(29.853224, 27.010284)"><g><path d="M 3.890625 0.0625 L 2.828125 0.03125 L 2.4375 0.03125 L 1.53125 -0.03125 L 1.265625 -0.09375 L 1.203125 -0.265625 L 1.203125 -0.53125 L 1.296875 -0.828125 L 1.328125 -1.125 L 1.359375 -1.4375 L 1.359375 -1.640625 L 1.40625 -1.828125 L 1.40625 -2.03125 L 1.5 -2.234375 L 1.5 -2.40625 L 1.53125 -2.625 L 1.625 -3.03125 L 1.625 -3.234375 L 1.703125 -3.46875 L 1.671875 -3.671875 L 1.765625 -3.90625 L 1.796875 -4.328125 L 1.859375 -4.5625 L 1.890625 -4.765625 L 1.859375 -5 L 1.96875 -5.234375 L 1.96875 -5.671875 L 2.125 -6.203125 L 2.125 -6.46875 L 2.171875 -6.765625 L 2.203125 -7.203125 L 2.203125 -7.4375 L 2.328125 -7.859375 L 2.359375 -8.0625 L 2.390625 -8.296875 L 2.390625 -8.5625 L 2.53125 -8.765625 L 2.59375 -8.9375 L 2.5625 -9.125 L 2.59375 -9.46875 L 2.640625 -9.6875 L 2.734375 -9.859375 L 2.734375 -10.03125 L 2.796875 -10.234375 L 2.859375 -10.5625 L 2.890625 -10.734375 L 2.9375 -11.125 L 3 -11.53125 L 3 -11.765625 L 3.140625 -12.390625 L 3.140625 -12.59375 L 3.171875 -12.765625 L 3.203125 -12.96875 L 3.265625 -13.359375 L 3.296875 -13.53125 L 3.296875 -13.734375 L 3.328125 -13.921875 L 3.4375 -14.265625 L 3.46875 -14.6875 L 3.5 -14.859375 L 3.59375 -15.265625 L 3.671875 -15.734375 L 3.765625 -16.15625 L 3.796875 -16.328125 L 3.796875 -16.5 L 3.828125 -16.890625 L 3.828125 -17.0625 L 3.890625 -17.265625 L 3.96875 -17.625 L 4.0625 -18.09375 L 4.171875 -18.921875 L 4.203125 -19.15625 L 4.234375 -19.359375 L 4.234375 -19.59375 L 4.359375 -19.828125 L 4.328125 -20.15625 L 4.4375 -20.296875 L 4.65625 -20.53125 L 4.9375 -20.59375 L 5.359375 -20.59375 L 7.125 -20.5625 L 8.390625 -20.5625 L 8.59375 -20.59375 L 8.890625 -20.625 L 9.125 -20.5625 L 9.5625 -20.5 L 9.828125 -20.5 L 10.203125 -20.453125 L 10.65625 -20.421875 L 10.96875 -20.359375 L 11.4375 -20.359375 L 11.6875 -20.296875 L 12 -20.15625 L 12.265625 -20.03125 L 12.46875 -19.984375 L 12.734375 -19.796875 L 12.921875 -19.71875 L 13.0625 -19.625 L 13.421875 -19.421875 L 13.53125 -19.296875 L 13.6875 -19.125 L 13.796875 -18.984375 L 14 -18.625 L 14.203125 -18.21875 L 14.296875 -17.734375 L 14.359375 -17.1875 L 14.359375 -16.96875 L 14.453125 -16.421875 L 14.453125 -16.1875 L 14.359375 -15.765625 L 14.328125 -15.5625 L 14.359375 -15.125 L 14.359375 -14.921875 L 14.265625 -14.453125 L 14.203125 -13.96875 L 14.125 -13.6875 L 14 -13.328125 L 13.953125 -13.125 L 13.890625 -12.953125 L 13.796875 -12.734375 L 13.65625 -12.390625 L 13.390625 -12 L 13.296875 -11.796875 L 13.1875 -11.53125 L 12.953125 -11.15625 L 12.859375 -10.96875 L 12.53125 -10.59375 L 12.390625 -10.4375 L 11.96875 -10 L 11.390625 -9.625 L 10.96875 -9.421875 L 10.765625 -9.390625 L 10.765625 -9.125 L 10.859375 -8.890625 L 11 -8.4375 L 11 -8.171875 L 11.0625 -7.796875 L 11.1875 -7.625 L 11.203125 -7.390625 L 11.265625 -7 L 11.359375 -6.828125 L 11.4375 -6.4375 L 11.5 -6.265625 L 11.5625 -5.859375 L 11.65625 -5.65625 L 11.703125 -5.40625 L 11.828125 -5.03125 L 11.828125 -4.859375 L 11.96875 -4.40625 L 12.03125 -4.03125 L 12.359375 -2.96875 L 12.421875 -2.5625 L 12.625 -2.0625 L 12.65625 -1.703125 L 12.6875 -1.5 L 12.734375 -1.234375 L 12.953125 -0.671875 L 12.859375 -0.296875 L 12.390625 -0.203125 L 12 -0.203125 L 11.390625 -0.125 L 10.625 -0.03125 L 10.234375 -0.03125 L 9.921875 0 L 9.6875 0 L 9.421875 0.03125 L 9.234375 0 L 8.96875 -0.265625 L 8.921875 -0.40625 L 8.828125 -0.765625 L 8.765625 -0.90625 L 8.671875 -1.234375 L 8.5 -1.671875 L 8.5 -1.90625 L 8.421875 -2.140625 L 8.359375 -2.234375 L 8.296875 -2.625 L 8.203125 -2.828125 L 8.203125 -3.03125 L 8.125 -3.203125 L 8.09375 -3.40625 L 8 -3.734375 L 7.890625 -4.03125 L 7.890625 -4.390625 L 7.703125 -4.90625 L 7.671875 -5.125 L 7.5625 -5.46875 L 7.5 -5.671875 L 7.4375 -6.0625 L 7.328125 -6.4375 L 7.296875 -6.859375 L 7.234375 -7 L 7.15625 -7.421875 L 7.09375 -7.703125 L 6.96875 -7.9375 L 6.921875 -8.171875 L 6.796875 -8.421875 L 6.671875 -8.53125 L 6.46875 -8.5625 L 6.4375 -8.4375 L 6.390625 -8.265625 L 6.296875 -7.859375 L 6.265625 -7.625 L 6.171875 -7 L 6.171875 -6.5 L 6.03125 -6.125 L 5.96875 -5.703125 L 5.96875 -5.53125 L 5.90625 -5.125 L 5.796875 -4.890625 L 5.796875 -4.265625 L 5.734375 -4.03125 L 5.625 -3.40625 L 5.59375 -3.171875 L 5.53125 -3 L 5.53125 -2.765625 L 5.4375 -2.359375 L 5.46875 -2.171875 L 5.40625 -1.96875 L 5.40625 -1.796875 L 5.390625 -1.40625 L 5.359375 -1.203125 L 5.359375 -1.03125 L 5.328125 -0.828125 L 5.296875 -0.46875 L 5.203125 -0.265625 L 5.125 0 L 4.828125 -0.03125 L 4.5625 0 L 4.125 0.03125 Z M 7.703125 -12.0625 L 8.171875 -12.0625 L 8.53125 -12.15625 L 8.703125 -12.265625 L 9 -12.453125 L 9.203125 -12.5625 L 9.421875 -12.796875 L 9.53125 -12.96875 L 9.734375 -13.15625 L 9.890625 -13.53125 L 9.9375 -13.765625 L 9.96875 -13.953125 L 10.1875 -14.359375 L 10.1875 -14.59375 L 10.265625 -14.828125 L 10.296875 -15.296875 L 10.265625 -15.953125 L 10.1875 -16.5625 L 10.03125 -16.828125 L 9.828125 -17.03125 L 9.5625 -17.1875 L 8.921875 -17.265625 L 8.203125 -17.296875 L 7.9375 -17.21875 L 7.859375 -16.890625 L 7.765625 -16.6875 L 7.703125 -16.21875 L 7.671875 -15.765625 L 7.65625 -15.390625 L 7.59375 -15.15625 L 7.5 -14.6875 L 7.5 -14.46875 L 7.4375 -14.03125 L 7.359375 -13.765625 L 7.390625 -13.5 L 7.328125 -13.234375 L 7.234375 -12.765625 L 7.203125 -12.5625 L 7.234375 -12.359375 L 7.203125 -12.125 Z M 7.703125 -12.0625 "/></g></g></g><g fill="#007834" fill-opacity="1"><g transform="translate(43.683104, 27.010284)"><g><path d="M 4.0625 0.0625 L 3.859375 0.03125 L 3 0.03125 L 2.59375 -0.03125 L 2.359375 -0.03125 L 2.140625 0 L 1.828125 -0.03125 L 1.625 -0.0625 L 1.390625 -0.03125 L 1.140625 -0.09375 L 0.90625 -0.296875 L 0.875 -0.734375 L 1.03125 -1.140625 L 1.0625 -1.59375 L 1.125 -1.796875 L 1.171875 -2.203125 L 1.203125 -2.4375 L 1.296875 -2.890625 L 1.328125 -3.09375 L 1.390625 -3.328125 L 1.40625 -3.53125 L 1.53125 -3.90625 L 1.5 -4.09375 L 1.59375 -4.625 L 1.671875 -4.9375 L 1.734375 -5.203125 L 1.828125 -5.46875 L 1.890625 -5.734375 L 1.9375 -6.09375 L 1.9375 -6.296875 L 2 -6.5 L 2.03125 -6.671875 L 2.09375 -6.890625 L 2.0625 -7.09375 L 2.265625 -7.734375 L 2.328125 -8.171875 L 2.328125 -8.359375 L 2.390625 -8.5625 L 2.40625 -8.765625 L 2.4375 -8.9375 L 2.5 -9.359375 L 2.5 -9.765625 L 2.625 -10.1875 L 2.625 -10.390625 L 2.671875 -10.796875 L 2.796875 -11.03125 L 2.796875 -11.421875 L 2.859375 -11.765625 L 2.9375 -12.15625 L 3.09375 -12.5625 L 3.171875 -13.1875 L 3.171875 -13.59375 L 3.265625 -13.796875 L 3.328125 -14.203125 L 3.359375 -14.390625 L 3.328125 -14.59375 L 3.4375 -14.953125 L 3.46875 -15.125 L 3.5625 -15.5 L 3.59375 -15.71875 L 3.703125 -16.09375 L 3.671875 -16.296875 L 3.703125 -16.53125 L 3.734375 -16.921875 L 3.796875 -17.0625 L 3.859375 -17.46875 L 3.9375 -17.859375 L 3.96875 -18.03125 L 4.03125 -18.21875 L 4.0625 -18.5625 L 4.125 -18.890625 L 4.234375 -19.21875 L 4.296875 -19.65625 L 4.359375 -19.828125 L 4.390625 -20.03125 L 4.59375 -20.328125 L 4.796875 -20.421875 L 4.96875 -20.53125 L 5.171875 -20.5625 L 5.625 -20.59375 L 5.890625 -20.5625 L 6.296875 -20.5625 L 6.5 -20.59375 L 8.0625 -20.59375 L 8.265625 -20.625 L 8.59375 -20.53125 L 8.703125 -20.25 L 8.671875 -20.0625 L 8.671875 -19.6875 L 8.625 -19.59375 L 8.59375 -19.265625 L 8.625 -19.09375 L 8.53125 -18.984375 L 8.53125 -18.71875 L 8.4375 -18.5625 L 8.390625 -18.15625 L 8.265625 -17.890625 L 8.265625 -17.65625 L 8.234375 -17.46875 L 8.234375 -17.265625 L 8.203125 -17.09375 L 8.0625 -16.328125 L 8 -16 L 7.9375 -15.828125 L 7.890625 -15.46875 L 7.859375 -15.265625 L 7.828125 -14.921875 L 7.796875 -14.703125 L 7.734375 -14.328125 L 7.65625 -13.96875 L 7.5625 -13.59375 L 7.4375 -13.03125 L 7.359375 -12.765625 L 7.359375 -12.5 L 7.328125 -12.296875 L 7.296875 -12.0625 L 7.296875 -11.859375 L 7.234375 -11.46875 L 7.15625 -11.1875 L 7 -10.296875 L 6.890625 -9.890625 L 6.796875 -9.6875 L 6.796875 -9.4375 L 6.703125 -9.0625 L 6.65625 -8.671875 L 6.59375 -8.328125 L 6.46875 -7.921875 L 6.46875 -7.671875 L 6.359375 -7.265625 L 6.359375 -7.03125 L 6.296875 -6.625 L 6.265625 -6.46875 L 6.265625 -6.0625 L 6.125 -5.765625 L 6.15625 -5.4375 L 6.0625 -5 L 6.03125 -4.765625 L 5.90625 -4.390625 L 5.90625 -4.15625 L 5.828125 -3.734375 L 5.765625 -3.328125 L 5.703125 -2.9375 L 5.703125 -2.734375 L 5.625 -2.40625 L 5.5 -1.703125 L 5.40625 -1.328125 L 5.359375 -0.90625 L 5.265625 -0.53125 L 5.234375 -0.296875 L 5.15625 -0.03125 L 4.828125 0.0625 Z M 4.0625 0.0625 "/></g></g></g><g fill="#007834" fill-opacity="1"><g transform="translate(51.421946, 27.010284)"><g><path d="M 6.40625 0.0625 L 6.15625 -0.03125 L 2.4375 -0.03125 L 2.09375 -0.125 L 1.703125 -0.03125 L 1.5 -0.03125 L 1.296875 0 L 1.09375 -0.03125 L 0.671875 -0.03125 L 0.359375 -0.0625 L 0.125 -0.09375 L -0.03125 -0.375 L -0.125 -0.640625 L -0.03125 -1.265625 L 0 -1.4375 L 0 -2.125 L 0.09375 -2.4375 L 0.171875 -2.828125 L 0.59375 -3.4375 L 0.765625 -3.734375 L 0.875 -3.90625 L 0.9375 -4.0625 L 1.0625 -4.203125 L 1.234375 -4.5 L 1.53125 -5 L 1.671875 -5.296875 L 1.828125 -5.65625 L 1.9375 -5.890625 L 2.0625 -6.0625 L 2.140625 -6.265625 L 2.359375 -6.625 L 2.46875 -6.765625 L 2.53125 -6.9375 L 3.140625 -7.890625 L 3.359375 -8.265625 L 3.59375 -8.59375 L 3.640625 -8.734375 L 3.796875 -9.15625 L 3.9375 -9.421875 L 4.234375 -9.921875 L 5.09375 -11.421875 L 5.265625 -11.765625 L 5.359375 -11.921875 L 5.5 -12.265625 L 5.59375 -12.453125 L 5.859375 -12.734375 L 5.90625 -12.921875 L 6.171875 -13.421875 L 6.359375 -13.703125 L 6.4375 -13.890625 L 6.625 -14.203125 L 6.734375 -14.390625 L 6.921875 -14.734375 L 7 -14.890625 L 7.125 -15.15625 L 7.296875 -15.359375 L 7.390625 -15.53125 L 7.625 -15.890625 L 7.890625 -16.328125 L 7.890625 -16.59375 L 7.65625 -16.65625 L 7.296875 -16.625 L 5.328125 -16.625 L 4.859375 -16.65625 L 4.625 -16.65625 L 4.15625 -16.6875 L 3.59375 -16.65625 L 3.359375 -16.6875 L 3.125 -16.65625 L 2.703125 -16.6875 L 2.625 -16.890625 L 2.671875 -17.03125 L 2.671875 -17.421875 L 2.703125 -17.625 L 2.765625 -17.796875 L 2.765625 -17.984375 L 2.796875 -18.1875 L 2.890625 -18.5625 L 2.90625 -18.734375 L 2.96875 -18.953125 L 3 -19.125 L 3 -19.328125 L 3.125 -19.71875 L 3.234375 -20.1875 L 3.40625 -20.484375 L 3.59375 -20.5625 L 4.828125 -20.5625 L 5.328125 -20.5 L 8.203125 -20.5 L 8.46875 -20.453125 L 9.859375 -20.453125 L 10.796875 -20.5 L 11.03125 -20.484375 L 11.46875 -20.453125 L 11.6875 -20.484375 L 11.859375 -20.484375 L 12.265625 -20.421875 L 12.5 -20.390625 L 12.6875 -20.296875 L 12.859375 -20.1875 L 12.921875 -19.6875 L 12.953125 -19.453125 L 12.859375 -19.1875 L 12.828125 -18.921875 L 12.828125 -18.53125 L 12.765625 -18.15625 L 12.734375 -17.921875 L 12.6875 -17.625 L 12.6875 -17.328125 L 12.65625 -17.125 L 12.46875 -16.765625 L 12.125 -16.03125 L 12.03125 -15.6875 L 11.9375 -15.46875 L 11.859375 -15.328125 L 11.625 -14.96875 L 11.5625 -14.796875 L 11.390625 -14.46875 L 11.296875 -14.296875 L 11.265625 -14.09375 L 11.125 -13.859375 L 11.0625 -13.6875 L 10.625 -12.796875 L 10.390625 -12.453125 L 10.328125 -12.265625 L 10.203125 -12.125 L 9.921875 -11.59375 L 9.828125 -11.421875 L 9.703125 -11.234375 L 9.65625 -11.0625 L 9.359375 -10.46875 L 9.296875 -10.296875 L 9.171875 -10.125 L 9.09375 -9.9375 L 9 -9.6875 L 8.859375 -9.4375 L 8.734375 -9.265625 L 8.59375 -9.125 L 8.5 -8.9375 L 8.390625 -8.765625 L 8.296875 -8.59375 L 8.171875 -8.421875 L 8.09375 -8.234375 L 8.03125 -8.0625 L 7.890625 -7.890625 L 7.828125 -7.703125 L 7.53125 -7.171875 L 7.265625 -6.65625 L 7.0625 -6.296875 L 6.9375 -6.125 L 6.703125 -5.796875 L 6.65625 -5.625 L 6.4375 -5.265625 L 6.359375 -5.09375 L 6.265625 -4.890625 L 6.09375 -4.53125 L 5.96875 -4.359375 L 5.859375 -4.09375 L 6.0625 -4 L 6.703125 -3.9375 L 6.921875 -3.90625 L 7.53125 -3.90625 L 7.734375 -3.96875 L 7.9375 -3.90625 L 8.15625 -3.90625 L 8.5625 -3.890625 L 8.796875 -3.890625 L 9.234375 -3.90625 L 9.4375 -3.90625 L 10.09375 -3.859375 L 10.296875 -3.828125 L 10.859375 -3.828125 L 11.125 -3.671875 L 11.125 -3.296875 L 11.03125 -2.765625 L 11.03125 -2.5625 L 10.96875 -2.390625 L 10.96875 -2.203125 L 10.921875 -2 L 10.890625 -1.640625 L 10.828125 -1.265625 L 10.765625 -1.0625 L 10.734375 -0.875 L 10.6875 -0.703125 L 10.65625 -0.5 L 10.59375 -0.265625 L 10.5625 -0.0625 L 10.265625 -0.03125 L 6.625 -0.03125 Z M 6.40625 0.0625 "/></g></g></g><g fill="#007834" fill-opacity="1"><g transform="translate(62.780086, 27.010284)"><g><path d="M 7.125 0.46875 L 6.359375 0.375 L 5.96875 0.40625 L 5.765625 0.375 L 5.5 0.359375 L 4.828125 0.140625 L 4.59375 0.125 L 4.15625 0 L 3.9375 -0.125 L 3.53125 -0.375 L 3 -0.828125 L 2.59375 -1.296875 L 2.5 -1.4375 L 2.359375 -1.59375 L 2.265625 -1.765625 L 2.125 -1.96875 L 1.890625 -2.359375 L 1.890625 -2.53125 L 1.796875 -2.734375 L 1.765625 -2.90625 L 1.703125 -3.0625 L 1.640625 -3.234375 L 1.625 -3.4375 L 1.5625 -3.625 L 1.53125 -4.03125 L 1.5 -4.203125 L 1.40625 -4.796875 L 1.46875 -5 L 1.46875 -5.5625 L 1.5625 -5.859375 L 1.53125 -6.09375 L 1.53125 -6.296875 L 1.59375 -6.9375 L 1.703125 -7.359375 L 1.703125 -7.59375 L 1.765625 -8 L 1.765625 -8.203125 L 1.890625 -8.625 L 1.828125 -8.765625 L 1.890625 -9.15625 L 1.9375 -9.359375 L 2.03125 -9.890625 L 2.125 -10.234375 L 2.125 -10.625 L 2.203125 -10.96875 L 2.203125 -11.1875 L 2.296875 -11.359375 L 2.359375 -11.5625 L 2.359375 -11.734375 L 2.40625 -11.9375 L 2.390625 -12.125 L 2.5625 -12.421875 L 2.625 -12.625 L 2.625 -13.03125 L 2.671875 -13.390625 L 2.765625 -13.59375 L 2.796875 -13.765625 L 2.859375 -14.1875 L 2.96875 -14.921875 L 3.125 -15.125 L 3.171875 -15.5 L 3.359375 -15.890625 L 3.4375 -16.09375 L 3.5625 -16.453125 L 3.703125 -16.859375 L 3.890625 -17.21875 L 4 -17.421875 L 4.265625 -17.796875 L 4.296875 -18 L 4.40625 -18.1875 L 4.65625 -18.5625 L 4.890625 -18.921875 L 5.09375 -19.0625 L 5.234375 -19.234375 L 5.65625 -19.6875 L 6.03125 -19.953125 L 6.265625 -20.03125 L 6.46875 -20.1875 L 6.828125 -20.390625 L 7.171875 -20.5625 L 7.625 -20.6875 L 7.796875 -20.71875 L 8.234375 -20.828125 L 8.53125 -20.859375 L 9.0625 -20.953125 L 9.46875 -20.984375 L 9.828125 -21 L 10.359375 -20.984375 L 10.53125 -20.953125 L 10.859375 -20.921875 L 11.328125 -20.859375 L 11.5625 -20.765625 L 11.796875 -20.75 L 11.96875 -20.6875 L 12.421875 -20.484375 L 12.953125 -20.125 L 13.1875 -19.984375 L 13.328125 -19.796875 L 13.65625 -19.53125 L 13.96875 -19.234375 L 14.125 -19.0625 L 14.203125 -18.859375 L 14.390625 -18.484375 L 14.46875 -18.296875 L 14.53125 -18.125 L 14.59375 -17.921875 L 14.6875 -17.46875 L 14.734375 -16.921875 L 14.765625 -16.6875 L 14.765625 -16.46875 L 14.734375 -16.09375 L 14.703125 -15.921875 L 14.734375 -15.53125 L 14.734375 -15.328125 L 14.703125 -14.953125 L 14.65625 -14.734375 L 14.625 -14.5625 L 14.65625 -14.359375 L 14.65625 -14.0625 L 14.625 -13.890625 L 14.5625 -13.46875 L 14.53125 -13.03125 L 14.5 -12.5625 L 14.453125 -12.359375 L 14.390625 -11.890625 L 14.421875 -11.59375 L 14.265625 -11.265625 L 14.296875 -10.921875 L 14.1875 -10.53125 L 14.125 -10.15625 L 14.03125 -9.765625 L 14 -9.421875 L 13.921875 -9.03125 L 13.828125 -8.859375 L 13.734375 -8.328125 L 13.734375 -8.0625 L 13.6875 -7.859375 L 13.625 -7.4375 L 13.53125 -7.265625 L 13.234375 -6.234375 L 13.265625 -6.0625 L 13.125 -5.703125 L 13.03125 -5.53125 L 13 -5.203125 L 12.859375 -4.890625 L 12.765625 -4.53125 L 12.765625 -4.328125 L 12.6875 -4 L 12.53125 -3.796875 L 12.5 -3.5 L 12.296875 -3.09375 L 12.0625 -2.5625 L 11.921875 -2.359375 L 11.65625 -1.96875 L 11.53125 -1.796875 L 11.390625 -1.625 L 11.328125 -1.4375 L 10.96875 -1.09375 L 10.796875 -0.9375 L 10.65625 -0.765625 L 10.296875 -0.5 L 9.9375 -0.265625 L 9.828125 -0.171875 L 9.15625 0.09375 L 8.9375 0.125 L 8.703125 0.171875 L 8.296875 0.265625 L 8.09375 0.296875 L 7.765625 0.375 Z M 6.890625 -3.53125 L 7.265625 -3.53125 L 7.671875 -3.640625 L 7.9375 -3.765625 L 8.359375 -4.0625 L 8.5625 -4.46875 L 8.734375 -4.890625 L 8.796875 -5.09375 L 8.796875 -5.328125 L 8.890625 -5.765625 L 8.9375 -5.96875 L 9 -6.390625 L 9.09375 -6.625 L 9.125 -7.03125 L 9.203125 -7.234375 L 9.296875 -7.625 L 9.328125 -7.859375 L 9.421875 -8.03125 L 9.421875 -8.265625 L 9.390625 -8.359375 L 9.46875 -8.625 L 9.5625 -9.0625 L 9.625 -9.734375 L 9.703125 -10 L 9.796875 -10.234375 L 9.859375 -10.796875 L 9.9375 -10.96875 L 9.921875 -11.46875 L 10.03125 -11.921875 L 10.09375 -12.265625 L 10.15625 -12.5 L 10.203125 -12.703125 L 10.1875 -12.921875 L 10.203125 -13.296875 L 10.265625 -13.53125 L 10.359375 -13.953125 L 10.421875 -14.203125 L 10.421875 -14.59375 L 10.46875 -15.125 L 10.5 -15.5 L 10.5625 -15.921875 L 10.4375 -16.5 L 10.328125 -16.6875 L 10.125 -16.953125 L 9.65625 -17.15625 L 9.09375 -17.125 L 8.859375 -17.0625 L 8.390625 -16.890625 L 8.09375 -16.625 L 7.890625 -16.296875 L 7.765625 -15.953125 L 7.46875 -15.359375 L 7.421875 -15.15625 L 7.359375 -14.921875 L 7.171875 -14.296875 L 7.171875 -14.234375 L 7.15625 -14 L 7.0625 -13.59375 L 7.03125 -13.421875 L 6.921875 -13 L 6.828125 -12.59375 L 6.734375 -12.125 L 6.703125 -11.921875 L 6.65625 -11.703125 L 6.59375 -11.265625 L 6.5 -11.03125 L 6.390625 -10.5625 L 6.328125 -10.359375 L 6.265625 -9.9375 L 6.265625 -9.734375 L 6.234375 -9.53125 L 6.265625 -9.296875 L 6.171875 -9.09375 L 6.03125 -8.671875 L 6.0625 -8.4375 L 6 -8.234375 L 6.03125 -8.125 L 5.96875 -7.859375 L 5.96875 -7.625 L 5.90625 -7.421875 L 5.90625 -7.171875 L 5.828125 -6.734375 L 5.828125 -6.53125 L 5.734375 -6.328125 L 5.828125 -6.125 L 5.796875 -5.765625 L 5.671875 -5.46875 L 5.765625 -5.265625 L 5.765625 -4.4375 L 5.859375 -4.234375 L 5.90625 -4.125 L 6.09375 -3.859375 L 6.234375 -3.703125 L 6.46875 -3.625 L 6.703125 -3.5625 Z M 6.890625 -3.53125 "/></g></g></g><g fill="#007834" fill-opacity="1"><g transform="translate(77.05135, 27.010284)"><g><path d="M 1.5 0.0625 L 1.0625 0 L 0.90625 -0.359375 L 0.96875 -0.59375 L 0.96875 -1.0625 L 1.03125 -1.53125 L 1.140625 -1.9375 L 1.171875 -2.140625 L 1.265625 -2.5625 L 1.328125 -2.703125 L 1.40625 -3.125 L 1.46875 -3.390625 L 1.5625 -3.859375 L 1.5625 -4.0625 L 1.625 -4.296875 L 1.625 -4.671875 L 1.734375 -4.890625 L 1.765625 -5.234375 L 1.796875 -5.4375 L 1.890625 -5.796875 L 1.90625 -5.96875 L 1.890625 -6.171875 L 1.9375 -6.5625 L 2.0625 -7.03125 L 2.125 -7.390625 L 2.171875 -7.65625 L 2.265625 -7.96875 L 2.328125 -8.328125 L 2.359375 -8.53125 L 2.40625 -8.703125 L 2.4375 -9.09375 L 2.46875 -9.265625 L 2.46875 -9.4375 L 2.625 -9.796875 L 2.640625 -9.96875 L 2.671875 -10.1875 L 2.703125 -10.59375 L 2.734375 -10.890625 L 2.890625 -11.234375 L 2.9375 -11.46875 L 3 -11.765625 L 3 -12.1875 L 3.03125 -12.421875 L 3.125 -12.65625 L 3.125 -12.890625 L 3.203125 -13.09375 L 3.203125 -13.296875 L 3.265625 -13.5 L 3.328125 -13.890625 L 3.40625 -14.203125 L 3.5 -14.46875 L 3.5 -14.828125 L 3.53125 -15.03125 L 3.59375 -15.21875 L 3.734375 -16.03125 L 3.734375 -16.234375 L 3.859375 -16.5 L 3.90625 -16.765625 L 3.9375 -17.15625 L 3.96875 -17.359375 L 4 -17.53125 L 4.03125 -17.734375 L 4.09375 -17.921875 L 4.125 -18.125 L 4.171875 -18.5 L 4.234375 -18.859375 L 4.328125 -19.234375 L 4.328125 -19.484375 L 4.40625 -19.859375 L 4.46875 -20.03125 L 4.5625 -20.1875 L 4.734375 -20.5 L 5.03125 -20.5625 L 5.4375 -20.59375 L 5.9375 -20.5625 L 6.203125 -20.5625 L 6.59375 -20.59375 L 7.15625 -20.5625 L 7.5 -20.59375 L 7.9375 -20.5625 L 8.359375 -20.5625 L 8.671875 -20.484375 L 8.859375 -20.21875 L 8.890625 -20 L 9 -19.71875 L 9.0625 -19.359375 L 9.09375 -19.03125 L 9.203125 -18.625 L 9.328125 -17.921875 L 9.421875 -17.453125 L 9.5 -16.953125 L 9.59375 -16.53125 L 9.703125 -15.953125 L 9.765625 -15.71875 L 9.859375 -15.0625 L 9.9375 -14.6875 L 9.9375 -14.5 L 10.03125 -14.1875 L 10.03125 -13.96875 L 10.0625 -13.65625 L 10.15625 -13.203125 L 10.203125 -12.703125 L 10.296875 -12.203125 L 10.328125 -11.734375 L 10.390625 -11.328125 L 10.4375 -11.09375 L 10.53125 -10.296875 L 10.65625 -9.625 L 10.703125 -8.96875 L 10.703125 -8.765625 L 10.765625 -8.5625 L 10.828125 -8.203125 L 10.921875 -7.421875 L 11 -6.765625 L 11.09375 -6.765625 L 11.125 -7.359375 L 11.1875 -8.0625 L 11.1875 -8.46875 L 11.265625 -9.890625 L 11.359375 -10.5 L 11.359375 -11.5 L 11.4375 -11.921875 L 11.46875 -12.09375 L 11.5 -12.296875 L 11.53125 -12.53125 L 11.5625 -12.953125 L 11.625 -13.125 L 11.6875 -13.53125 L 11.6875 -13.703125 L 11.796875 -14.09375 L 11.796875 -14.453125 L 11.828125 -14.796875 L 11.828125 -15 L 12 -15.359375 L 11.96875 -15.5625 L 12.0625 -16.09375 L 12.0625 -16.265625 L 12.15625 -16.65625 L 12.1875 -16.859375 L 12.234375 -17.03125 L 12.296875 -17.453125 L 12.328125 -17.6875 L 12.46875 -18.296875 L 12.5625 -18.53125 L 12.5625 -18.796875 L 12.59375 -18.984375 L 12.6875 -19.453125 L 12.796875 -20.0625 L 13.03125 -20.484375 L 13.15625 -20.5625 L 13.703125 -20.6875 L 14.328125 -20.625 L 14.53125 -20.65625 L 14.828125 -20.65625 L 15.5 -20.625 L 15.796875 -20.625 L 16.21875 -20.65625 L 16.625 -20.5625 L 16.796875 -20.484375 L 16.828125 -20.25 L 16.828125 -20 L 16.734375 -19.59375 L 16.765625 -19.359375 L 16.6875 -18.71875 L 16.625 -18.296875 L 16.453125 -17.59375 L 16.359375 -17.265625 L 16.265625 -16.734375 L 16.21875 -16.5 L 16.125 -15.890625 L 16 -15.421875 L 15.953125 -14.953125 L 15.859375 -14.6875 L 15.796875 -14.453125 L 15.734375 -14.234375 L 15.734375 -13.859375 L 15.6875 -13.65625 L 15.5625 -12.765625 L 15.46875 -12.5 L 15.453125 -12.1875 L 15.421875 -11.96875 L 15.359375 -11.734375 L 15.265625 -11.359375 L 15.21875 -11.15625 L 15.125 -10.765625 L 15.0625 -10.359375 L 15 -10.125 L 15.03125 -9.859375 L 14.96875 -9.6875 L 14.953125 -9.46875 L 14.890625 -9.296875 L 14.859375 -9.09375 L 14.828125 -8.921875 L 14.828125 -8.53125 L 14.734375 -8.359375 L 14.65625 -7.9375 L 14.59375 -7.671875 L 14.5625 -7.421875 L 14.53125 -7.234375 L 14.5 -7.03125 L 14.46875 -6.859375 L 14.46875 -6.671875 L 14.359375 -6.265625 L 14.296875 -5.859375 L 14.234375 -5.5625 L 14.125 -5.296875 L 14 -4.9375 L 13.96875 -4.625 L 13.953125 -4.234375 L 13.890625 -3.859375 L 13.796875 -3.625 L 13.6875 -3.203125 L 13.6875 -2.734375 L 13.53125 -2.359375 L 13.53125 -2.171875 L 13.46875 -1.96875 L 13.390625 -1.59375 L 13.234375 -0.640625 L 12.96875 -0.296875 L 12.6875 -0.09375 L 12.265625 -0.0625 L 11.9375 0 L 11.828125 0 L 11.265625 -0.03125 L 11.0625 0 L 10.765625 -0.03125 L 10.59375 0 L 10 0 L 9.625 -0.03125 L 9.125 -0.03125 L 8.890625 -0.234375 L 8.65625 -0.703125 L 8.5 -1.125 L 8.46875 -1.265625 L 8.4375 -1.625 L 8.421875 -1.796875 L 8.359375 -2.40625 L 8.328125 -2.59375 L 8.203125 -3.203125 L 8.171875 -3.390625 L 8.125 -3.796875 L 8.09375 -4.234375 L 8 -4.5625 L 7.921875 -5 L 7.921875 -5.171875 L 7.828125 -5.59375 L 7.796875 -5.765625 L 7.703125 -6.171875 L 7.671875 -6.359375 L 7.671875 -6.796875 L 7.5625 -7.390625 L 7.5 -7.9375 L 7.390625 -8.765625 L 7.234375 -9.703125 L 7.15625 -10.53125 L 6.96875 -11.59375 L 6.796875 -12.703125 L 6.703125 -12.703125 L 6.671875 -11.890625 L 6.65625 -11.296875 L 6.625 -10.96875 L 6.5625 -10.46875 L 6.53125 -9.734375 L 6.328125 -8.328125 L 6.203125 -7.171875 L 6.15625 -7 L 6.0625 -6.625 L 6.125 -6.40625 L 6.03125 -6.0625 L 5.96875 -5.859375 L 6 -5.65625 L 5.96875 -5.46875 L 5.90625 -5.0625 L 5.796875 -4.625 L 5.671875 -4.03125 L 5.625 -3.625 L 5.59375 -3.4375 L 5.53125 -3.234375 L 5.40625 -2.390625 L 5.328125 -2 L 5.296875 -1.796875 L 5.296875 -1.40625 L 5.234375 -1.234375 L 5.15625 -0.703125 L 5.03125 -0.359375 L 4.9375 -0.0625 L 4.625 0.0625 Z M 1.5 0.0625 "/></g></g></g></g></g></svg>