<svg xmlns="http://www.w3.org/2000/svg" xmlns:xlink="http://www.w3.org/1999/xlink" width="500" zoomAndPan="magnify" viewBox="0 0 375 374.999991" height="500" preserveAspectRatio="xMidYMid meet" version="1.0"><defs><g/><clipPath id="f6708d0c8c"><path d="M 84 122.835938 L 149 122.835938 L 149 219 L 84 219 Z M 84 122.835938 " clip-rule="nonzero"/></clipPath><clipPath id="c0f926019e"><path d="M 148 122.835938 L 225 122.835938 L 225 219 L 148 219 Z M 148 122.835938 " clip-rule="nonzero"/></clipPath><clipPath id="4d7f90e8d5"><path d="M 70 122.835938 L 291 122.835938 L 291 251.835938 L 70 251.835938 Z M 70 122.835938 " clip-rule="nonzero"/></clipPath><clipPath id="51a79e01cf"><path d="M 109.1875 213.949219 L 212.6875 213.949219 L 212.6875 235.699219 L 109.1875 235.699219 Z M 109.1875 213.949219 " clip-rule="nonzero"/></clipPath></defs><rect x="-37.5" width="450" fill="#ffffff" y="-37.499999" height="449.999989" fill-opacity="1"/><rect x="-37.5" width="450" fill="#ffffff" y="-37.499999" height="449.999989" fill-opacity="1"/><g clip-path="url(#f6708d0c8c)"><path fill="#007834" d="M 139.546875 218.492188 L 148.710938 195.648438 L 118.601562 195.648438 L 147.648438 122.824219 L 96.171875 122.835938 L 86.753906 144.855469 L 113.8125 144.855469 L 84.230469 218.492188 Z M 139.546875 218.492188 " fill-opacity="1" fill-rule="nonzero"/></g><g clip-path="url(#c0f926019e)"><path fill="#007834" d="M 200.863281 218.777344 L 201.859375 218.777344 C 201.859375 218.777344 224.941406 218.765625 224.941406 218.765625 L 224.941406 122.835938 C 224.941406 122.835938 200.679688 122.835938 200.679688 122.835938 C 200.679688 122.835938 200.875 188.082031 200.679688 195.421875 C 175.460938 195.742188 167.257812 174.015625 173.851562 157.53125 C 177.117188 149.359375 184.078125 131.988281 187.664062 123.667969 L 188.132812 122.835938 L 162.8125 122.835938 C 162.8125 122.835938 161.28125 125.789062 151.636719 150.03125 C 141.605469 175.257812 153.933594 218.777344 200.863281 218.777344 Z M 200.863281 218.777344 " fill-opacity="1" fill-rule="nonzero"/></g><g clip-path="url(#4d7f90e8d5)"><path fill="#007834" d="M 284.851562 189.449219 C 279.972656 182.382812 264.328125 159.789062 262.738281 157.519531 C 259.816406 153.316406 258.226562 150.910156 259.734375 147.71875 C 260.992188 145.039062 263.699219 144.6875 264.671875 144.6875 L 288.105469 144.617188 L 273.402344 123.074219 L 273.230469 122.835938 L 255.550781 122.859375 C 246.433594 122.859375 238.5625 127.953125 234.605469 134.871094 C 230.390625 142.257812 230.160156 152.597656 234.882812 159.503906 C 239.292969 165.96875 250.695312 182.484375 257.964844 192.984375 C 263.070312 200.359375 268.910156 207.617188 263.984375 218.195312 C 261.289062 224.011719 255.746094 228.207031 248.066406 228.207031 C 237.316406 228.207031 80.492188 228.207031 80.492188 228.207031 L 80.128906 228.207031 L 70.632812 251.824219 L 235.417969 251.847656 C 258.304688 251.847656 274.691406 249.917969 285.421875 230.199219 C 291.71875 218.628906 292.507812 200.539062 284.851562 189.425781 Z M 284.851562 189.449219 " fill-opacity="1" fill-rule="nonzero"/></g><g clip-path="url(#51a79e01cf)"><path fill="#007834" d="M 196.652344 234.546875 C 189.496094 222.234375 176.171875 213.949219 160.902344 213.949219 C 145.636719 213.949219 132.3125 222.234375 125.15625 234.546875 L 109.523438 234.546875 L 109.523438 236.003906 L 212.28125 236.003906 L 212.28125 234.546875 Z M 196.652344 234.546875 " fill-opacity="1" fill-rule="nonzero"/></g><g fill="#007834" fill-opacity="1"><g transform="translate(66.772375, 268.792718)"><g><path d="M 7.484375 0.046875 L 7.296875 0 L 6.703125 0 L 6.46875 -0.015625 L 6.3125 -0.015625 L 6.15625 -0.046875 L 6.03125 -0.234375 L 6.046875 -0.421875 L 6.078125 -0.609375 L 6.109375 -0.8125 L 6.203125 -0.96875 L 6.203125 -1.28125 L 6.296875 -1.734375 L 6.3125 -1.890625 L 6.3125 -2.046875 L 6.34375 -2.203125 L 6.359375 -2.484375 L 6.40625 -2.59375 L 6.421875 -2.90625 L 6.484375 -3.234375 L 6.53125 -3.65625 L 6.671875 -4.3125 L 6.75 -4.546875 L 6.796875 -4.78125 L 6.796875 -5.03125 L 6.859375 -5.34375 L 6.90625 -5.5 L 6.953125 -5.8125 L 6.953125 -5.96875 L 7 -6.21875 L 6.796875 -6.203125 L 6.640625 -6.203125 L 6.453125 -6.25 L 5.734375 -6.1875 L 5.40625 -6.25 L 5.03125 -6.265625 L 5.015625 -6.15625 L 5 -5.984375 L 4.90625 -5.671875 L 4.859375 -5.390625 L 4.78125 -5.234375 L 4.78125 -4.859375 L 4.734375 -4.703125 L 4.625 -4.203125 L 4.484375 -3.71875 L 4.515625 -3.59375 L 4.40625 -3.328125 L 4.375 -3.21875 L 4.296875 -2.921875 L 4.25 -2.59375 L 4.109375 -1.984375 L 4.09375 -1.796875 L 4.03125 -1.5 L 4.03125 -1.34375 L 3.984375 -1.03125 L 3.9375 -0.859375 L 3.921875 -0.703125 L 3.875 -0.375 L 3.765625 -0.15625 L 3.59375 -0.0625 L 3.390625 -0.046875 L 3.125 -0.015625 L 2.796875 0.015625 L 2.625 0.015625 L 2.46875 -0.046875 L 2.15625 0.015625 L 1.890625 -0.015625 L 1.1875 -0.015625 L 0.75 -0.0625 L 0.65625 -0.3125 L 0.65625 -0.484375 L 0.75 -0.6875 L 0.859375 -0.96875 L 0.875 -1.1875 L 0.921875 -1.390625 L 0.921875 -1.546875 L 0.96875 -1.671875 L 0.921875 -1.828125 L 1.0625 -2.0625 L 1.09375 -2.21875 L 1.078125 -2.390625 L 1.171875 -2.703125 L 1.140625 -3.015625 L 1.234375 -3.171875 L 1.3125 -3.359375 L 1.34375 -3.515625 L 1.34375 -3.703125 L 1.40625 -4 L 1.453125 -4.1875 L 1.5625 -4.953125 L 1.609375 -5.078125 L 1.625 -5.21875 L 1.671875 -5.390625 L 1.65625 -5.546875 L 1.734375 -5.859375 L 1.765625 -6.140625 L 1.828125 -6.359375 L 1.875 -6.625 L 1.875 -6.78125 L 1.90625 -7.109375 L 1.984375 -7.265625 L 2.046875 -7.4375 L 2.046875 -7.609375 L 2.140625 -7.921875 L 2.25 -8.5625 L 2.265625 -8.6875 L 2.3125 -9 L 2.328125 -9.3125 L 2.46875 -9.609375 L 2.515625 -10.078125 L 2.59375 -10.53125 L 2.640625 -10.828125 L 2.6875 -11 L 2.75 -11.46875 L 2.765625 -11.578125 L 2.765625 -11.875 L 2.859375 -12.0625 L 2.875 -12.234375 L 2.90625 -12.359375 L 2.96875 -12.65625 L 2.96875 -13.109375 L 3.125 -13.390625 L 3.109375 -13.703125 L 3.171875 -14.015625 L 3.234375 -14.171875 L 3.21875 -14.34375 L 3.25 -14.5 L 3.328125 -14.78125 L 3.34375 -15.046875 L 3.359375 -15.296875 L 3.5625 -15.40625 L 4.109375 -15.40625 L 5.015625 -15.421875 L 5.328125 -15.40625 L 5.8125 -15.40625 L 6.03125 -15.46875 L 6.296875 -15.421875 L 6.515625 -15.375 L 6.5625 -15.1875 L 6.5625 -15.046875 L 6.578125 -14.890625 L 6.515625 -14.625 L 6.484375 -14.5 L 6.46875 -14.1875 L 6.40625 -13.984375 L 6.375 -13.796875 L 6.296875 -13.375 L 6.25 -13.0625 L 6.21875 -12.796875 L 6.15625 -12.65625 L 6.15625 -12.296875 L 6.109375 -12.140625 L 6.078125 -11.96875 L 6.046875 -11.6875 L 6 -11.578125 L 5.984375 -11.3125 L 5.984375 -11.171875 L 5.9375 -11.0625 L 5.890625 -10.890625 L 5.875 -10.734375 L 5.8125 -10.609375 L 5.828125 -10.453125 L 5.765625 -10.15625 L 5.71875 -10.015625 L 5.734375 -9.875 L 5.703125 -9.703125 L 5.671875 -9.5625 L 5.625 -9.390625 L 5.78125 -9.375 L 5.96875 -9.375 L 6.59375 -9.34375 L 6.78125 -9.375 L 7.046875 -9.34375 L 7.21875 -9.375 L 7.671875 -9.34375 L 7.703125 -9.453125 L 7.75 -9.703125 L 7.828125 -9.90625 L 7.828125 -10.046875 L 7.859375 -10.203125 L 7.96875 -10.53125 L 7.921875 -10.671875 L 8.03125 -10.953125 L 8.046875 -11.09375 L 8.078125 -11.234375 L 8.09375 -11.421875 L 8.125 -11.578125 L 8.15625 -11.703125 L 8.15625 -11.859375 L 8.234375 -12.140625 L 8.25 -12.4375 L 8.34375 -12.625 L 8.34375 -12.890625 L 8.3125 -13.0625 L 8.34375 -13.21875 L 8.421875 -13.53125 L 8.421875 -13.703125 L 8.484375 -13.984375 L 8.53125 -14.125 L 8.578125 -14.40625 L 8.609375 -14.546875 L 8.6875 -14.734375 L 8.734375 -14.890625 L 8.71875 -15.046875 L 8.734375 -15.1875 L 8.90625 -15.375 L 9.046875 -15.40625 L 9.234375 -15.421875 L 10.03125 -15.421875 L 10.46875 -15.40625 L 11.09375 -15.40625 L 11.4375 -15.359375 L 11.59375 -15.296875 L 11.75 -15.09375 L 11.71875 -14.953125 L 11.75 -14.8125 L 11.65625 -14.671875 L 11.6875 -14.59375 L 11.65625 -14.453125 L 11.65625 -14.296875 L 11.578125 -14.03125 L 11.546875 -13.734375 L 11.546875 -13.546875 L 11.53125 -13.390625 L 11.484375 -13.25 L 11.4375 -13.0625 L 11.421875 -12.78125 L 11.421875 -12.625 L 11.375 -12.34375 L 11.359375 -12.1875 L 11.28125 -11.90625 L 11.265625 -11.75 L 11.21875 -11.59375 L 11.203125 -11.421875 L 11.15625 -11.125 L 11.125 -11 L 11.015625 -10.734375 L 11 -10.609375 L 10.953125 -10.3125 L 10.90625 -9.96875 L 10.890625 -9.640625 L 10.78125 -9.328125 L 10.765625 -9 L 10.734375 -8.859375 L 10.671875 -8.5625 L 10.640625 -8.40625 L 10.5625 -8.265625 L 10.5625 -8.09375 L 10.609375 -7.9375 L 10.53125 -7.8125 L 10.515625 -7.65625 L 10.515625 -7.375 L 10.5 -7.21875 L 10.390625 -6.9375 L 10.359375 -6.78125 L 10.28125 -6.375 L 10.28125 -6.25 L 10.234375 -6 L 10.15625 -5.703125 L 10.125 -5.546875 L 10.140625 -5.40625 L 10.015625 -4.953125 L 10.03125 -4.8125 L 9.984375 -4.65625 L 9.9375 -4.53125 L 9.921875 -4.375 L 9.859375 -4.0625 L 9.859375 -3.890625 L 9.828125 -3.734375 L 9.765625 -3.4375 L 9.703125 -3.1875 L 9.65625 -3.0625 L 9.640625 -2.75 L 9.609375 -2.390625 L 9.546875 -2.09375 L 9.53125 -1.9375 L 9.484375 -1.65625 L 9.4375 -1.5 L 9.421875 -1.25 L 9.375 -0.984375 L 9.3125 -0.875 L 9.28125 -0.703125 L 9.234375 -0.546875 L 9.234375 -0.375 L 9.203125 -0.21875 L 9.109375 -0.09375 L 8.84375 -0.015625 L 8.515625 -0.015625 L 8.375 0 L 8.09375 0.015625 L 7.65625 0.015625 Z M 7.484375 0.046875 "/></g></g></g><g fill="#007834" fill-opacity="1"><g transform="translate(77.836408, 268.792718)"><g><path d="M 5.328125 0.359375 L 4.75 0.28125 L 4.46875 0.3125 L 4.3125 0.28125 L 4.109375 0.265625 L 3.609375 0.109375 L 3.4375 0.09375 L 3.109375 0 L 2.640625 -0.28125 L 2.25 -0.609375 L 1.9375 -0.96875 L 1.875 -1.078125 L 1.765625 -1.1875 L 1.6875 -1.3125 L 1.578125 -1.46875 L 1.40625 -1.765625 L 1.40625 -1.890625 L 1.34375 -2.046875 L 1.3125 -2.171875 L 1.28125 -2.28125 L 1.234375 -2.421875 L 1.203125 -2.578125 L 1.171875 -2.703125 L 1.140625 -3.015625 L 1.125 -3.140625 L 1.0625 -3.59375 L 1.09375 -3.734375 L 1.09375 -4.15625 L 1.171875 -4.375 L 1.140625 -4.546875 L 1.140625 -4.703125 L 1.1875 -5.1875 L 1.28125 -5.5 L 1.28125 -5.671875 L 1.3125 -5.984375 L 1.3125 -6.140625 L 1.40625 -6.453125 L 1.359375 -6.5625 L 1.40625 -6.84375 L 1.453125 -7 L 1.515625 -7.390625 L 1.578125 -7.65625 L 1.578125 -7.9375 L 1.65625 -8.203125 L 1.65625 -8.359375 L 1.71875 -8.484375 L 1.765625 -8.640625 L 1.765625 -8.78125 L 1.796875 -8.9375 L 1.78125 -9.0625 L 1.90625 -9.28125 L 1.953125 -9.4375 L 1.953125 -9.75 L 2 -10.015625 L 2.0625 -10.15625 L 2.09375 -10.296875 L 2.140625 -10.609375 L 2.21875 -11.15625 L 2.328125 -11.3125 L 2.375 -11.59375 L 2.515625 -11.875 L 2.578125 -12.03125 L 2.65625 -12.296875 L 2.765625 -12.609375 L 2.90625 -12.875 L 2.984375 -13.03125 L 3.1875 -13.3125 L 3.21875 -13.46875 L 3.296875 -13.59375 L 3.46875 -13.875 L 3.65625 -14.140625 L 3.8125 -14.25 L 3.921875 -14.390625 L 4.21875 -14.71875 L 4.515625 -14.921875 L 4.6875 -14.984375 L 4.84375 -15.09375 L 5.109375 -15.25 L 5.375 -15.375 L 5.703125 -15.46875 L 5.828125 -15.484375 L 6.15625 -15.578125 L 6.375 -15.59375 L 6.78125 -15.65625 L 7.078125 -15.6875 L 7.34375 -15.703125 L 7.75 -15.6875 L 7.875 -15.65625 L 8.125 -15.640625 L 8.46875 -15.59375 L 8.640625 -15.53125 L 8.828125 -15.515625 L 8.953125 -15.46875 L 9.28125 -15.3125 L 9.6875 -15.046875 L 9.859375 -14.9375 L 9.96875 -14.8125 L 10.203125 -14.609375 L 10.453125 -14.390625 L 10.5625 -14.25 L 10.625 -14.109375 L 10.765625 -13.8125 L 10.828125 -13.6875 L 10.875 -13.546875 L 10.90625 -13.390625 L 10.984375 -13.0625 L 11.015625 -12.65625 L 11.046875 -12.46875 L 11.046875 -12.3125 L 11.015625 -12.03125 L 11 -11.90625 L 11.015625 -11.609375 L 11.015625 -11.46875 L 11 -11.171875 L 10.953125 -11.015625 L 10.9375 -10.890625 L 10.953125 -10.734375 L 10.953125 -10.515625 L 10.9375 -10.390625 L 10.890625 -10.078125 L 10.875 -9.75 L 10.84375 -9.390625 L 10.796875 -9.234375 L 10.765625 -8.890625 L 10.78125 -8.671875 L 10.671875 -8.421875 L 10.6875 -8.15625 L 10.609375 -7.875 L 10.5625 -7.59375 L 10.5 -7.296875 L 10.46875 -7.046875 L 10.40625 -6.75 L 10.34375 -6.625 L 10.28125 -6.21875 L 10.28125 -6.03125 L 10.234375 -5.875 L 10.1875 -5.5625 L 10.125 -5.4375 L 9.90625 -4.65625 L 9.921875 -4.53125 L 9.8125 -4.265625 L 9.75 -4.140625 L 9.71875 -3.890625 L 9.609375 -3.65625 L 9.546875 -3.390625 L 9.546875 -3.234375 L 9.484375 -2.984375 L 9.375 -2.84375 L 9.34375 -2.625 L 9.203125 -2.3125 L 9.015625 -1.90625 L 8.90625 -1.765625 L 8.71875 -1.46875 L 8.625 -1.34375 L 8.515625 -1.203125 L 8.46875 -1.078125 L 8.203125 -0.8125 L 8.078125 -0.703125 L 7.96875 -0.578125 L 7.703125 -0.375 L 7.4375 -0.203125 L 7.34375 -0.125 L 6.84375 0.0625 L 6.6875 0.09375 L 6.515625 0.125 L 6.203125 0.203125 L 6.046875 0.21875 L 5.8125 0.28125 Z M 5.140625 -2.640625 L 5.4375 -2.640625 L 5.734375 -2.734375 L 5.9375 -2.8125 L 6.25 -3.03125 L 6.40625 -3.34375 L 6.53125 -3.65625 L 6.578125 -3.8125 L 6.578125 -3.984375 L 6.640625 -4.3125 L 6.6875 -4.46875 L 6.734375 -4.78125 L 6.796875 -4.953125 L 6.8125 -5.265625 L 6.890625 -5.40625 L 6.953125 -5.703125 L 6.96875 -5.875 L 7.046875 -6 L 7.046875 -6.1875 L 7.015625 -6.25 L 7.078125 -6.453125 L 7.15625 -6.78125 L 7.1875 -7.28125 L 7.265625 -7.484375 L 7.328125 -7.65625 L 7.375 -8.078125 L 7.4375 -8.203125 L 7.40625 -8.578125 L 7.5 -8.90625 L 7.546875 -9.171875 L 7.59375 -9.34375 L 7.640625 -9.5 L 7.609375 -9.65625 L 7.640625 -9.9375 L 7.671875 -10.125 L 7.75 -10.421875 L 7.78125 -10.625 L 7.78125 -10.90625 L 7.828125 -11.3125 L 7.859375 -11.59375 L 7.890625 -11.90625 L 7.8125 -12.34375 L 7.71875 -12.46875 L 7.5625 -12.671875 L 7.21875 -12.828125 L 6.796875 -12.796875 L 6.625 -12.765625 L 6.265625 -12.625 L 6.046875 -12.4375 L 5.890625 -12.1875 L 5.8125 -11.921875 L 5.71875 -11.765625 L 5.59375 -11.484375 L 5.546875 -11.328125 L 5.5 -11.15625 L 5.375 -10.6875 L 5.375 -10.640625 L 5.34375 -10.46875 L 5.28125 -10.15625 L 5.265625 -10.03125 L 5.171875 -9.71875 L 5.109375 -9.421875 L 5.03125 -9.0625 L 5.015625 -8.90625 L 4.96875 -8.75 L 4.921875 -8.421875 L 4.859375 -8.25 L 4.78125 -7.890625 L 4.734375 -7.75 L 4.6875 -7.4375 L 4.6875 -7.28125 L 4.65625 -7.125 L 4.6875 -6.953125 L 4.625 -6.796875 L 4.515625 -6.484375 L 4.53125 -6.3125 L 4.484375 -6.15625 L 4.515625 -6.078125 L 4.46875 -5.875 L 4.46875 -5.703125 L 4.421875 -5.546875 L 4.421875 -5.375 L 4.359375 -5.03125 L 4.359375 -4.890625 L 4.296875 -4.734375 L 4.359375 -4.578125 L 4.328125 -4.3125 L 4.25 -4.09375 L 4.3125 -3.9375 L 4.3125 -3.328125 L 4.375 -3.171875 L 4.421875 -3.078125 L 4.546875 -2.875 L 4.65625 -2.765625 L 4.84375 -2.703125 L 5.015625 -2.65625 Z M 5.140625 -2.640625 "/></g></g></g><g fill="#007834" fill-opacity="1"><g transform="translate(88.50451, 268.792718)"><g><path d="M 2.90625 0.046875 L 2.109375 0.015625 L 1.828125 0.015625 L 1.140625 -0.015625 L 0.953125 -0.0625 L 0.90625 -0.203125 L 0.90625 -0.390625 L 0.96875 -0.609375 L 0.984375 -0.84375 L 1.015625 -1.078125 L 1.015625 -1.234375 L 1.0625 -1.359375 L 1.0625 -1.515625 L 1.125 -1.671875 L 1.125 -1.796875 L 1.140625 -1.953125 L 1.203125 -2.265625 L 1.203125 -2.421875 L 1.28125 -2.59375 L 1.25 -2.75 L 1.3125 -2.921875 L 1.34375 -3.234375 L 1.390625 -3.40625 L 1.40625 -3.5625 L 1.390625 -3.734375 L 1.46875 -3.921875 L 1.46875 -4.25 L 1.578125 -4.640625 L 1.578125 -4.84375 L 1.625 -5.0625 L 1.65625 -5.390625 L 1.65625 -5.5625 L 1.734375 -5.875 L 1.765625 -6.03125 L 1.78125 -6.203125 L 1.78125 -6.40625 L 1.890625 -6.5625 L 1.9375 -6.6875 L 1.90625 -6.8125 L 1.9375 -7.078125 L 1.984375 -7.234375 L 2.046875 -7.375 L 2.046875 -7.5 L 2.09375 -7.65625 L 2.140625 -7.890625 L 2.15625 -8.03125 L 2.203125 -8.3125 L 2.25 -8.625 L 2.25 -8.796875 L 2.359375 -9.265625 L 2.359375 -9.421875 L 2.375 -9.546875 L 2.390625 -9.703125 L 2.4375 -9.984375 L 2.46875 -10.125 L 2.46875 -10.28125 L 2.484375 -10.40625 L 2.578125 -10.671875 L 2.59375 -10.984375 L 2.625 -11.109375 L 2.6875 -11.421875 L 2.75 -11.765625 L 2.8125 -12.078125 L 2.84375 -12.203125 L 2.84375 -12.34375 L 2.859375 -12.625 L 2.859375 -12.765625 L 2.90625 -12.90625 L 2.96875 -13.171875 L 3.03125 -13.53125 L 3.125 -14.140625 L 3.140625 -14.328125 L 3.171875 -14.46875 L 3.171875 -14.65625 L 3.25 -14.828125 L 3.234375 -15.0625 L 3.328125 -15.1875 L 3.46875 -15.359375 L 3.703125 -15.40625 L 4 -15.40625 L 5.328125 -15.375 L 6.265625 -15.375 L 6.421875 -15.40625 L 6.640625 -15.421875 L 6.8125 -15.375 L 7.15625 -15.328125 L 7.34375 -15.328125 L 7.640625 -15.296875 L 7.96875 -15.265625 L 8.203125 -15.21875 L 8.5625 -15.21875 L 8.734375 -15.1875 L 8.96875 -15.0625 L 9.171875 -14.984375 L 9.328125 -14.9375 L 9.53125 -14.8125 L 9.65625 -14.734375 L 9.765625 -14.671875 L 10.03125 -14.515625 L 10.125 -14.4375 L 10.234375 -14.296875 L 10.3125 -14.1875 L 10.46875 -13.921875 L 10.625 -13.625 L 10.6875 -13.265625 L 10.734375 -12.84375 L 10.734375 -12.6875 L 10.796875 -12.28125 L 10.796875 -12.09375 L 10.734375 -11.796875 L 10.71875 -11.640625 L 10.734375 -11.3125 L 10.734375 -11.15625 L 10.671875 -10.796875 L 10.625 -10.453125 L 10.5625 -10.234375 L 10.46875 -9.96875 L 10.421875 -9.8125 L 10.390625 -9.6875 L 10.3125 -9.53125 L 10.203125 -9.265625 L 10.015625 -8.96875 L 9.9375 -8.828125 L 9.859375 -8.625 L 9.6875 -8.34375 L 9.609375 -8.203125 L 9.375 -7.921875 L 9.265625 -7.8125 L 8.953125 -7.484375 L 8.515625 -7.1875 L 8.203125 -7.046875 L 8.046875 -7.015625 L 8.046875 -6.8125 L 8.125 -6.640625 L 8.234375 -6.3125 L 8.234375 -6.109375 L 8.265625 -5.828125 L 8.359375 -5.703125 L 8.375 -5.515625 L 8.421875 -5.234375 L 8.484375 -5.109375 L 8.5625 -4.8125 L 8.609375 -4.6875 L 8.640625 -4.375 L 8.71875 -4.21875 L 8.75 -4.046875 L 8.84375 -3.765625 L 8.84375 -3.625 L 8.953125 -3.296875 L 9 -3.015625 L 9.234375 -2.21875 L 9.28125 -1.90625 L 9.4375 -1.546875 L 9.453125 -1.28125 L 9.484375 -1.125 L 9.53125 -0.921875 L 9.6875 -0.5 L 9.609375 -0.21875 L 9.5 -0.203125 L 9.265625 -0.15625 L 8.96875 -0.15625 L 8.515625 -0.09375 L 7.9375 -0.015625 L 7.65625 -0.015625 L 7.40625 0 L 7.234375 0 L 7.046875 0.015625 L 6.90625 0 L 6.703125 -0.203125 L 6.671875 -0.3125 L 6.59375 -0.578125 L 6.5625 -0.6875 L 6.484375 -0.921875 L 6.359375 -1.25 L 6.359375 -1.4375 L 6.296875 -1.609375 L 6.25 -1.671875 L 6.203125 -1.953125 L 6.140625 -2.109375 L 6.140625 -2.265625 L 6.078125 -2.390625 L 6.046875 -2.546875 L 5.984375 -2.796875 L 5.890625 -3.015625 L 5.890625 -3.28125 L 5.765625 -3.671875 L 5.734375 -3.828125 L 5.65625 -4.09375 L 5.609375 -4.25 L 5.5625 -4.53125 L 5.484375 -4.8125 L 5.453125 -5.125 L 5.40625 -5.234375 L 5.34375 -5.546875 L 5.296875 -5.765625 L 5.21875 -5.9375 L 5.171875 -6.109375 L 5.078125 -6.296875 L 5 -6.375 L 4.84375 -6.40625 L 4.8125 -6.3125 L 4.703125 -5.875 L 4.6875 -5.703125 L 4.625 -5.234375 L 4.625 -4.859375 L 4.515625 -4.578125 L 4.46875 -4.265625 L 4.46875 -4.140625 L 4.421875 -3.828125 L 4.328125 -3.65625 L 4.328125 -3.1875 L 4.296875 -3.015625 L 4.203125 -2.546875 L 4.1875 -2.375 L 4.140625 -2.25 L 4.140625 -2.0625 L 4.0625 -1.765625 L 4.09375 -1.625 L 4.046875 -1.46875 L 4.046875 -1.34375 L 4.03125 -1.0625 L 4 -0.90625 L 4 -0.765625 L 3.984375 -0.609375 L 3.953125 -0.359375 L 3.890625 -0.203125 L 3.828125 0 L 3.609375 -0.015625 L 3.40625 0 L 3.078125 0.015625 Z M 5.765625 -9.015625 L 6.109375 -9.015625 L 6.375 -9.09375 L 6.515625 -9.171875 L 6.734375 -9.3125 L 6.890625 -9.390625 L 7.046875 -9.5625 L 7.125 -9.703125 L 7.28125 -9.828125 L 7.390625 -10.125 L 7.4375 -10.296875 L 7.453125 -10.421875 L 7.609375 -10.734375 L 7.609375 -10.90625 L 7.671875 -11.09375 L 7.703125 -11.4375 L 7.671875 -11.921875 L 7.609375 -12.390625 L 7.5 -12.578125 L 7.34375 -12.734375 L 7.15625 -12.84375 L 6.671875 -12.90625 L 6.140625 -12.9375 L 5.9375 -12.875 L 5.875 -12.625 L 5.8125 -12.46875 L 5.765625 -12.125 L 5.734375 -11.796875 L 5.71875 -11.5 L 5.671875 -11.328125 L 5.609375 -10.984375 L 5.609375 -10.828125 L 5.5625 -10.5 L 5.5 -10.296875 L 5.515625 -10.09375 L 5.484375 -9.90625 L 5.40625 -9.546875 L 5.390625 -9.390625 L 5.40625 -9.234375 L 5.390625 -9.0625 Z M 5.765625 -9.015625 "/></g></g></g><g fill="#007834" fill-opacity="1"><g transform="translate(98.842667, 268.792718)"><g><path d="M 3.03125 0.046875 L 2.875 0.015625 L 2.25 0.015625 L 1.9375 -0.015625 L 1.765625 -0.015625 L 1.609375 0 L 1.359375 -0.015625 L 1.203125 -0.046875 L 1.03125 -0.015625 L 0.859375 -0.0625 L 0.6875 -0.21875 L 0.65625 -0.546875 L 0.765625 -0.859375 L 0.796875 -1.1875 L 0.84375 -1.34375 L 0.875 -1.65625 L 0.90625 -1.828125 L 0.96875 -2.15625 L 0.984375 -2.3125 L 1.03125 -2.484375 L 1.0625 -2.640625 L 1.140625 -2.921875 L 1.125 -3.0625 L 1.1875 -3.453125 L 1.296875 -3.890625 L 1.359375 -4.09375 L 1.40625 -4.296875 L 1.453125 -4.546875 L 1.453125 -4.703125 L 1.5 -4.859375 L 1.515625 -5 L 1.5625 -5.140625 L 1.546875 -5.296875 L 1.6875 -5.78125 L 1.734375 -6.109375 L 1.734375 -6.25 L 1.78125 -6.40625 L 1.796875 -6.5625 L 1.828125 -6.6875 L 1.875 -7 L 1.875 -7.296875 L 1.953125 -7.609375 L 1.953125 -7.765625 L 2 -8.078125 L 2.09375 -8.25 L 2.09375 -8.53125 L 2.140625 -8.796875 L 2.203125 -9.09375 L 2.3125 -9.390625 L 2.375 -9.859375 L 2.375 -10.15625 L 2.4375 -10.3125 L 2.484375 -10.625 L 2.515625 -10.765625 L 2.484375 -10.90625 L 2.578125 -11.171875 L 2.59375 -11.3125 L 2.65625 -11.59375 L 2.6875 -11.75 L 2.765625 -12.03125 L 2.75 -12.1875 L 2.765625 -12.359375 L 2.796875 -12.65625 L 2.84375 -12.765625 L 2.875 -13.0625 L 2.953125 -13.359375 L 2.96875 -13.484375 L 3.015625 -13.625 L 3.03125 -13.875 L 3.078125 -14.125 L 3.171875 -14.359375 L 3.21875 -14.703125 L 3.25 -14.828125 L 3.28125 -14.984375 L 3.4375 -15.203125 L 3.59375 -15.265625 L 3.71875 -15.359375 L 3.875 -15.375 L 4.203125 -15.40625 L 4.40625 -15.375 L 4.703125 -15.375 L 4.859375 -15.40625 L 6.03125 -15.40625 L 6.1875 -15.421875 L 6.421875 -15.359375 L 6.515625 -15.140625 L 6.484375 -15 L 6.484375 -14.71875 L 6.453125 -14.65625 L 6.421875 -14.40625 L 6.453125 -14.28125 L 6.375 -14.1875 L 6.375 -13.984375 L 6.3125 -13.875 L 6.265625 -13.578125 L 6.1875 -13.375 L 6.1875 -13.203125 L 6.15625 -13.0625 L 6.15625 -12.90625 L 6.140625 -12.78125 L 6.03125 -12.203125 L 5.984375 -11.96875 L 5.9375 -11.84375 L 5.890625 -11.578125 L 5.875 -11.421875 L 5.859375 -11.15625 L 5.828125 -11 L 5.78125 -10.71875 L 5.71875 -10.453125 L 5.65625 -10.15625 L 5.625 -10.046875 L 5.5625 -9.75 L 5.5 -9.546875 L 5.5 -9.34375 L 5.484375 -9.203125 L 5.453125 -9.015625 L 5.453125 -8.859375 L 5.40625 -8.578125 L 5.34375 -8.359375 L 5.234375 -7.703125 L 5.140625 -7.390625 L 5.078125 -7.234375 L 5.078125 -7.0625 L 5.015625 -6.78125 L 4.96875 -6.484375 L 4.921875 -6.21875 L 4.84375 -5.921875 L 4.84375 -5.734375 L 4.75 -5.4375 L 4.75 -5.265625 L 4.703125 -4.953125 L 4.6875 -4.84375 L 4.6875 -4.53125 L 4.578125 -4.3125 L 4.59375 -4.0625 L 4.53125 -3.734375 L 4.515625 -3.5625 L 4.421875 -3.28125 L 4.421875 -3.109375 L 4.359375 -2.796875 L 4.3125 -2.484375 L 4.265625 -2.203125 L 4.265625 -2.046875 L 4.203125 -1.796875 L 4.109375 -1.28125 L 4.046875 -0.984375 L 4 -0.6875 L 3.9375 -0.390625 L 3.921875 -0.21875 L 3.84375 -0.015625 L 3.609375 0.046875 Z M 3.03125 0.046875 "/></g></g></g><g fill="#007834" fill-opacity="1"><g transform="translate(104.627632, 268.792718)"><g><path d="M 4.796875 0.046875 L 4.59375 -0.015625 L 1.828125 -0.015625 L 1.5625 -0.09375 L 1.28125 -0.015625 L 1.125 -0.015625 L 0.96875 0 L 0.8125 -0.015625 L 0.5 -0.015625 L 0.265625 -0.046875 L 0.09375 -0.0625 L -0.015625 -0.28125 L -0.09375 -0.484375 L -0.015625 -0.953125 L 0 -1.078125 L 0 -1.578125 L 0.0625 -1.828125 L 0.125 -2.109375 L 0.4375 -2.578125 L 0.578125 -2.796875 L 0.65625 -2.921875 L 0.703125 -3.03125 L 0.796875 -3.140625 L 0.921875 -3.359375 L 1.140625 -3.734375 L 1.25 -3.953125 L 1.359375 -4.21875 L 1.453125 -4.40625 L 1.546875 -4.53125 L 1.609375 -4.6875 L 1.765625 -4.953125 L 1.84375 -5.0625 L 1.890625 -5.1875 L 2.359375 -5.890625 L 2.515625 -6.1875 L 2.6875 -6.421875 L 2.734375 -6.53125 L 2.84375 -6.84375 L 2.953125 -7.046875 L 3.171875 -7.40625 L 3.8125 -8.53125 L 3.9375 -8.796875 L 4 -8.90625 L 4.109375 -9.171875 L 4.1875 -9.3125 L 4.375 -9.53125 L 4.421875 -9.65625 L 4.625 -10.03125 L 4.75 -10.25 L 4.8125 -10.390625 L 4.953125 -10.625 L 5.03125 -10.765625 L 5.171875 -11.015625 L 5.234375 -11.125 L 5.328125 -11.328125 L 5.453125 -11.484375 L 5.515625 -11.609375 L 5.703125 -11.875 L 5.890625 -12.203125 L 5.890625 -12.40625 L 5.71875 -12.453125 L 5.453125 -12.4375 L 3.984375 -12.4375 L 3.625 -12.453125 L 3.453125 -12.453125 L 3.109375 -12.46875 L 2.6875 -12.453125 L 2.515625 -12.46875 L 2.328125 -12.453125 L 2.03125 -12.46875 L 1.953125 -12.625 L 2 -12.734375 L 2 -13.03125 L 2.0625 -13.3125 L 2.0625 -13.4375 L 2.09375 -13.59375 L 2.15625 -13.875 L 2.171875 -14.015625 L 2.21875 -14.171875 L 2.25 -14.296875 L 2.25 -14.453125 L 2.328125 -14.734375 L 2.421875 -15.09375 L 2.546875 -15.3125 L 2.6875 -15.375 L 3.609375 -15.375 L 3.984375 -15.328125 L 6.140625 -15.328125 L 6.34375 -15.296875 L 7.375 -15.296875 L 8.078125 -15.328125 L 8.25 -15.3125 L 8.578125 -15.296875 L 8.734375 -15.3125 L 8.859375 -15.3125 L 9.171875 -15.265625 L 9.34375 -15.25 L 9.484375 -15.1875 L 9.609375 -15.09375 L 9.65625 -14.71875 L 9.6875 -14.546875 L 9.609375 -14.34375 L 9.59375 -14.140625 L 9.59375 -13.859375 L 9.546875 -13.578125 L 9.53125 -13.390625 L 9.484375 -13.171875 L 9.484375 -12.953125 L 9.453125 -12.796875 L 9.328125 -12.546875 L 9.0625 -11.984375 L 9 -11.71875 L 8.9375 -11.578125 L 8.859375 -11.46875 L 8.6875 -11.203125 L 8.640625 -11.0625 L 8.515625 -10.828125 L 8.453125 -10.6875 L 8.421875 -10.53125 L 8.3125 -10.359375 L 8.265625 -10.234375 L 7.9375 -9.5625 L 7.765625 -9.3125 L 7.71875 -9.171875 L 7.640625 -9.0625 L 7.40625 -8.671875 L 7.34375 -8.53125 L 7.265625 -8.40625 L 7.21875 -8.265625 L 7 -7.828125 L 6.953125 -7.703125 L 6.859375 -7.5625 L 6.796875 -7.4375 L 6.734375 -7.234375 L 6.625 -7.0625 L 6.53125 -6.9375 L 6.421875 -6.8125 L 6.359375 -6.6875 L 6.265625 -6.5625 L 6.203125 -6.421875 L 6.109375 -6.296875 L 6.046875 -6.15625 L 6 -6.03125 L 5.890625 -5.890625 L 5.859375 -5.765625 L 5.625 -5.375 L 5.4375 -4.96875 L 5.28125 -4.703125 L 5.1875 -4.578125 L 5.015625 -4.328125 L 4.96875 -4.203125 L 4.8125 -3.9375 L 4.75 -3.8125 L 4.6875 -3.65625 L 4.546875 -3.390625 L 4.46875 -3.25 L 4.375 -3.0625 L 4.53125 -2.984375 L 5.015625 -2.953125 L 5.171875 -2.921875 L 5.625 -2.921875 L 5.78125 -2.96875 L 5.9375 -2.921875 L 6.09375 -2.921875 L 6.40625 -2.90625 L 6.578125 -2.90625 L 6.90625 -2.921875 L 7.0625 -2.921875 L 7.21875 -2.90625 L 7.546875 -2.875 L 7.703125 -2.859375 L 8.125 -2.859375 L 8.3125 -2.75 L 8.3125 -2.46875 L 8.25 -2.0625 L 8.25 -1.90625 L 8.203125 -1.78125 L 8.203125 -1.65625 L 8.15625 -1.5 L 8.140625 -1.234375 L 8.09375 -0.953125 L 8.046875 -0.796875 L 8.03125 -0.65625 L 7.984375 -0.53125 L 7.96875 -0.375 L 7.921875 -0.203125 L 7.890625 -0.046875 L 7.671875 -0.015625 L 4.953125 -0.015625 Z M 4.796875 0.046875 "/></g></g></g><g fill="#007834" fill-opacity="1"><g transform="translate(113.118106, 268.792718)"><g><path d="M 5.328125 0.359375 L 4.75 0.28125 L 4.46875 0.3125 L 4.3125 0.28125 L 4.109375 0.265625 L 3.609375 0.109375 L 3.4375 0.09375 L 3.109375 0 L 2.640625 -0.28125 L 2.25 -0.609375 L 1.9375 -0.96875 L 1.875 -1.078125 L 1.765625 -1.1875 L 1.6875 -1.3125 L 1.578125 -1.46875 L 1.40625 -1.765625 L 1.40625 -1.890625 L 1.34375 -2.046875 L 1.3125 -2.171875 L 1.28125 -2.28125 L 1.234375 -2.421875 L 1.203125 -2.578125 L 1.171875 -2.703125 L 1.140625 -3.015625 L 1.125 -3.140625 L 1.0625 -3.59375 L 1.09375 -3.734375 L 1.09375 -4.15625 L 1.171875 -4.375 L 1.140625 -4.546875 L 1.140625 -4.703125 L 1.1875 -5.1875 L 1.28125 -5.5 L 1.28125 -5.671875 L 1.3125 -5.984375 L 1.3125 -6.140625 L 1.40625 -6.453125 L 1.359375 -6.5625 L 1.40625 -6.84375 L 1.453125 -7 L 1.515625 -7.390625 L 1.578125 -7.65625 L 1.578125 -7.9375 L 1.65625 -8.203125 L 1.65625 -8.359375 L 1.71875 -8.484375 L 1.765625 -8.640625 L 1.765625 -8.78125 L 1.796875 -8.9375 L 1.78125 -9.0625 L 1.90625 -9.28125 L 1.953125 -9.4375 L 1.953125 -9.75 L 2 -10.015625 L 2.0625 -10.15625 L 2.09375 -10.296875 L 2.140625 -10.609375 L 2.21875 -11.15625 L 2.328125 -11.3125 L 2.375 -11.59375 L 2.515625 -11.875 L 2.578125 -12.03125 L 2.65625 -12.296875 L 2.765625 -12.609375 L 2.90625 -12.875 L 2.984375 -13.03125 L 3.1875 -13.3125 L 3.21875 -13.46875 L 3.296875 -13.59375 L 3.46875 -13.875 L 3.65625 -14.140625 L 3.8125 -14.25 L 3.921875 -14.390625 L 4.21875 -14.71875 L 4.515625 -14.921875 L 4.6875 -14.984375 L 4.84375 -15.09375 L 5.109375 -15.25 L 5.375 -15.375 L 5.703125 -15.46875 L 5.828125 -15.484375 L 6.15625 -15.578125 L 6.375 -15.59375 L 6.78125 -15.65625 L 7.078125 -15.6875 L 7.34375 -15.703125 L 7.75 -15.6875 L 7.875 -15.65625 L 8.125 -15.640625 L 8.46875 -15.59375 L 8.640625 -15.53125 L 8.828125 -15.515625 L 8.953125 -15.46875 L 9.28125 -15.3125 L 9.6875 -15.046875 L 9.859375 -14.9375 L 9.96875 -14.8125 L 10.203125 -14.609375 L 10.453125 -14.390625 L 10.5625 -14.25 L 10.625 -14.109375 L 10.765625 -13.8125 L 10.828125 -13.6875 L 10.875 -13.546875 L 10.90625 -13.390625 L 10.984375 -13.0625 L 11.015625 -12.65625 L 11.046875 -12.46875 L 11.046875 -12.3125 L 11.015625 -12.03125 L 11 -11.90625 L 11.015625 -11.609375 L 11.015625 -11.46875 L 11 -11.171875 L 10.953125 -11.015625 L 10.9375 -10.890625 L 10.953125 -10.734375 L 10.953125 -10.515625 L 10.9375 -10.390625 L 10.890625 -10.078125 L 10.875 -9.75 L 10.84375 -9.390625 L 10.796875 -9.234375 L 10.765625 -8.890625 L 10.78125 -8.671875 L 10.671875 -8.421875 L 10.6875 -8.15625 L 10.609375 -7.875 L 10.5625 -7.59375 L 10.5 -7.296875 L 10.46875 -7.046875 L 10.40625 -6.75 L 10.34375 -6.625 L 10.28125 -6.21875 L 10.28125 -6.03125 L 10.234375 -5.875 L 10.1875 -5.5625 L 10.125 -5.4375 L 9.90625 -4.65625 L 9.921875 -4.53125 L 9.8125 -4.265625 L 9.75 -4.140625 L 9.71875 -3.890625 L 9.609375 -3.65625 L 9.546875 -3.390625 L 9.546875 -3.234375 L 9.484375 -2.984375 L 9.375 -2.84375 L 9.34375 -2.625 L 9.203125 -2.3125 L 9.015625 -1.90625 L 8.90625 -1.765625 L 8.71875 -1.46875 L 8.625 -1.34375 L 8.515625 -1.203125 L 8.46875 -1.078125 L 8.203125 -0.8125 L 8.078125 -0.703125 L 7.96875 -0.578125 L 7.703125 -0.375 L 7.4375 -0.203125 L 7.34375 -0.125 L 6.84375 0.0625 L 6.6875 0.09375 L 6.515625 0.125 L 6.203125 0.203125 L 6.046875 0.21875 L 5.8125 0.28125 Z M 5.140625 -2.640625 L 5.4375 -2.640625 L 5.734375 -2.734375 L 5.9375 -2.8125 L 6.25 -3.03125 L 6.40625 -3.34375 L 6.53125 -3.65625 L 6.578125 -3.8125 L 6.578125 -3.984375 L 6.640625 -4.3125 L 6.6875 -4.46875 L 6.734375 -4.78125 L 6.796875 -4.953125 L 6.8125 -5.265625 L 6.890625 -5.40625 L 6.953125 -5.703125 L 6.96875 -5.875 L 7.046875 -6 L 7.046875 -6.1875 L 7.015625 -6.25 L 7.078125 -6.453125 L 7.15625 -6.78125 L 7.1875 -7.28125 L 7.265625 -7.484375 L 7.328125 -7.65625 L 7.375 -8.078125 L 7.4375 -8.203125 L 7.40625 -8.578125 L 7.5 -8.90625 L 7.546875 -9.171875 L 7.59375 -9.34375 L 7.640625 -9.5 L 7.609375 -9.65625 L 7.640625 -9.9375 L 7.671875 -10.125 L 7.75 -10.421875 L 7.78125 -10.625 L 7.78125 -10.90625 L 7.828125 -11.3125 L 7.859375 -11.59375 L 7.890625 -11.90625 L 7.8125 -12.34375 L 7.71875 -12.46875 L 7.5625 -12.671875 L 7.21875 -12.828125 L 6.796875 -12.796875 L 6.625 -12.765625 L 6.265625 -12.625 L 6.046875 -12.4375 L 5.890625 -12.1875 L 5.8125 -11.921875 L 5.71875 -11.765625 L 5.59375 -11.484375 L 5.546875 -11.328125 L 5.5 -11.15625 L 5.375 -10.6875 L 5.375 -10.640625 L 5.34375 -10.46875 L 5.28125 -10.15625 L 5.265625 -10.03125 L 5.171875 -9.71875 L 5.109375 -9.421875 L 5.03125 -9.0625 L 5.015625 -8.90625 L 4.96875 -8.75 L 4.921875 -8.421875 L 4.859375 -8.25 L 4.78125 -7.890625 L 4.734375 -7.75 L 4.6875 -7.4375 L 4.6875 -7.28125 L 4.65625 -7.125 L 4.6875 -6.953125 L 4.625 -6.796875 L 4.515625 -6.484375 L 4.53125 -6.3125 L 4.484375 -6.15625 L 4.515625 -6.078125 L 4.46875 -5.875 L 4.46875 -5.703125 L 4.421875 -5.546875 L 4.421875 -5.375 L 4.359375 -5.03125 L 4.359375 -4.890625 L 4.296875 -4.734375 L 4.359375 -4.578125 L 4.328125 -4.3125 L 4.25 -4.09375 L 4.3125 -3.9375 L 4.3125 -3.328125 L 4.375 -3.171875 L 4.421875 -3.078125 L 4.546875 -2.875 L 4.65625 -2.765625 L 4.84375 -2.703125 L 5.015625 -2.65625 Z M 5.140625 -2.640625 "/></g></g></g><g fill="#007834" fill-opacity="1"><g transform="translate(123.786208, 268.792718)"><g><path d="M 1.125 0.046875 L 0.796875 0 L 0.6875 -0.265625 L 0.71875 -0.4375 L 0.71875 -0.796875 L 0.765625 -1.140625 L 0.859375 -1.453125 L 0.875 -1.609375 L 0.953125 -1.90625 L 0.984375 -2.03125 L 1.0625 -2.328125 L 1.09375 -2.53125 L 1.171875 -2.875 L 1.171875 -3.03125 L 1.203125 -3.21875 L 1.203125 -3.5 L 1.296875 -3.65625 L 1.3125 -3.921875 L 1.34375 -4.0625 L 1.40625 -4.328125 L 1.4375 -4.46875 L 1.40625 -4.625 L 1.453125 -4.90625 L 1.546875 -5.265625 L 1.578125 -5.515625 L 1.625 -5.71875 L 1.6875 -5.96875 L 1.734375 -6.21875 L 1.765625 -6.375 L 1.796875 -6.515625 L 1.84375 -6.9375 L 1.84375 -7.0625 L 1.953125 -7.328125 L 1.984375 -7.453125 L 2.03125 -7.921875 L 2.046875 -8.140625 L 2.15625 -8.40625 L 2.203125 -8.578125 L 2.25 -8.796875 L 2.25 -9.109375 L 2.265625 -9.28125 L 2.328125 -9.453125 L 2.328125 -9.640625 L 2.390625 -9.796875 L 2.390625 -9.9375 L 2.4375 -10.09375 L 2.484375 -10.390625 L 2.546875 -10.625 L 2.625 -10.828125 L 2.625 -11.09375 L 2.640625 -11.234375 L 2.6875 -11.375 L 2.796875 -11.984375 L 2.796875 -12.140625 L 2.875 -12.34375 L 2.921875 -12.546875 L 2.953125 -12.828125 L 2.96875 -12.984375 L 2.984375 -13.109375 L 3.015625 -13.265625 L 3.0625 -13.390625 L 3.078125 -13.546875 L 3.125 -13.84375 L 3.171875 -14.109375 L 3.234375 -14.390625 L 3.234375 -14.5625 L 3.296875 -14.84375 L 3.34375 -14.984375 L 3.40625 -15.09375 L 3.546875 -15.328125 L 3.765625 -15.375 L 4.0625 -15.40625 L 4.4375 -15.375 L 4.640625 -15.375 L 4.921875 -15.40625 L 5.34375 -15.375 L 5.609375 -15.40625 L 5.9375 -15.375 L 6.25 -15.375 L 6.484375 -15.3125 L 6.625 -15.109375 L 6.640625 -14.953125 L 6.734375 -14.734375 L 6.78125 -14.46875 L 6.796875 -14.234375 L 6.890625 -13.921875 L 6.96875 -13.390625 L 7.046875 -13.046875 L 7.109375 -12.671875 L 7.171875 -12.359375 L 7.265625 -11.921875 L 7.296875 -11.75 L 7.328125 -11.59375 L 7.375 -11.265625 L 7.4375 -10.984375 L 7.4375 -10.84375 L 7.5 -10.609375 L 7.5 -10.453125 L 7.53125 -10.203125 L 7.59375 -9.875 L 7.640625 -9.5 L 7.703125 -9.125 L 7.71875 -8.78125 L 7.765625 -8.46875 L 7.8125 -8.296875 L 7.875 -7.703125 L 7.96875 -7.1875 L 8.015625 -6.703125 L 8.015625 -6.5625 L 8.046875 -6.40625 L 8.09375 -6.140625 L 8.15625 -5.546875 L 8.234375 -5.0625 L 8.296875 -5.0625 L 8.3125 -5.5 L 8.359375 -6.03125 L 8.359375 -6.34375 L 8.421875 -7.390625 L 8.484375 -7.859375 L 8.484375 -8.609375 L 8.5625 -8.90625 L 8.578125 -9.046875 L 8.609375 -9.203125 L 8.625 -9.375 L 8.640625 -9.6875 L 8.6875 -9.8125 L 8.734375 -10.125 L 8.734375 -10.25 L 8.828125 -10.53125 L 8.828125 -10.796875 L 8.84375 -11.0625 L 8.84375 -11.21875 L 8.96875 -11.484375 L 8.953125 -11.640625 L 9.015625 -12.03125 L 9.015625 -12.171875 L 9.09375 -12.453125 L 9.109375 -12.609375 L 9.15625 -12.734375 L 9.203125 -13.046875 L 9.21875 -13.21875 L 9.28125 -13.53125 L 9.328125 -13.6875 L 9.390625 -13.859375 L 9.390625 -14.0625 L 9.421875 -14.1875 L 9.484375 -14.546875 L 9.5625 -15 L 9.75 -15.3125 L 9.828125 -15.375 L 10.25 -15.46875 L 10.71875 -15.421875 L 10.875 -15.4375 L 11.09375 -15.4375 L 11.59375 -15.421875 L 11.8125 -15.421875 L 12.125 -15.4375 L 12.4375 -15.375 L 12.5625 -15.3125 L 12.578125 -15.140625 L 12.578125 -14.953125 L 12.515625 -14.65625 L 12.546875 -14.46875 L 12.46875 -13.984375 L 12.4375 -13.6875 L 12.296875 -13.15625 L 12.234375 -12.90625 L 12.171875 -12.515625 L 12.125 -12.34375 L 12.0625 -11.875 L 11.96875 -11.53125 L 11.921875 -11.171875 L 11.859375 -10.984375 L 11.8125 -10.796875 L 11.765625 -10.640625 L 11.765625 -10.359375 L 11.71875 -10.203125 L 11.640625 -9.546875 L 11.578125 -9.34375 L 11.546875 -9.109375 L 11.53125 -8.953125 L 11.484375 -8.78125 L 11.421875 -8.484375 L 11.375 -8.34375 L 11.3125 -8.046875 L 11.265625 -7.75 L 11.21875 -7.5625 L 11.234375 -7.375 L 11.203125 -7.234375 L 11.171875 -7.078125 L 11.125 -6.953125 L 11.109375 -6.796875 L 11.09375 -6.671875 L 11.09375 -6.375 L 11.015625 -6.25 L 10.953125 -5.9375 L 10.90625 -5.734375 L 10.890625 -5.546875 L 10.875 -5.40625 L 10.84375 -5.265625 L 10.828125 -5.125 L 10.828125 -5 L 10.734375 -4.6875 L 10.6875 -4.375 L 10.640625 -4.15625 L 10.5625 -3.953125 L 10.46875 -3.703125 L 10.453125 -3.453125 L 10.421875 -3.171875 L 10.390625 -2.875 L 10.3125 -2.703125 L 10.234375 -2.390625 L 10.234375 -2.046875 L 10.125 -1.765625 L 10.125 -1.625 L 10.078125 -1.46875 L 10.015625 -1.1875 L 9.90625 -0.484375 L 9.703125 -0.21875 L 9.484375 -0.0625 L 9.171875 -0.046875 L 8.9375 0 L 8.84375 0 L 8.421875 -0.015625 L 8.265625 0 L 8.046875 -0.015625 L 7.921875 0 L 7.484375 0 L 7.1875 -0.015625 L 6.8125 -0.015625 L 6.640625 -0.171875 L 6.46875 -0.53125 L 6.359375 -0.84375 L 6.34375 -0.953125 L 6.3125 -1.203125 L 6.296875 -1.34375 L 6.25 -1.796875 L 6.21875 -1.9375 L 6.140625 -2.390625 L 6.109375 -2.53125 L 6.078125 -2.84375 L 6.046875 -3.171875 L 5.984375 -3.40625 L 5.921875 -3.734375 L 5.921875 -3.875 L 5.859375 -4.1875 L 5.828125 -4.3125 L 5.765625 -4.625 L 5.734375 -4.75 L 5.734375 -5.078125 L 5.65625 -5.515625 L 5.609375 -5.9375 L 5.515625 -6.5625 L 5.40625 -7.265625 L 5.34375 -7.875 L 5.21875 -8.671875 L 5.078125 -9.5 L 5.015625 -9.5 L 5 -8.890625 L 4.96875 -8.453125 L 4.953125 -8.203125 L 4.90625 -7.828125 L 4.890625 -7.28125 L 4.734375 -6.21875 L 4.640625 -5.375 L 4.59375 -5.234375 L 4.53125 -4.953125 L 4.578125 -4.796875 L 4.515625 -4.53125 L 4.46875 -4.375 L 4.484375 -4.21875 L 4.46875 -4.09375 L 4.421875 -3.78125 L 4.328125 -3.453125 L 4.25 -3.015625 L 4.203125 -2.703125 L 4.1875 -2.578125 L 4.140625 -2.421875 L 4.046875 -1.78125 L 3.984375 -1.5 L 3.953125 -1.34375 L 3.953125 -1.0625 L 3.921875 -0.921875 L 3.84375 -0.53125 L 3.765625 -0.265625 L 3.703125 -0.046875 L 3.453125 0.046875 Z M 1.125 0.046875 "/></g></g></g></svg>